<?xml version="1.0" encoding="UTF-8"?>
<svg id="Layer_2" data-name="Layer 2" xmlns="http://www.w3.org/2000/svg" viewBox="0 0 118.73 39.43">
  <defs>
    <style>
      .cls-1 {
        fill: #e12428;
      }

      .cls-2 {
        fill: #010101;
      }
    </style>
  </defs>
  <g id="Layer_1-2" data-name="Layer 1">
    <g id="AD_Sports_TV" data-name="AD Sports TV">
      <g>
        <path class="cls-2" d="m10.2,7.14c0-.99-.8-1.79-1.78-1.79s-1.79.8-1.79,1.79.8,1.78,1.79,1.78,1.78-.8,1.78-1.78Z"/>
        <path class="cls-2" d="m28.66,7.14c0-.99-.8-1.79-1.78-1.79s-1.79.8-1.79,1.79.8,1.78,1.79,1.78,1.78-.8,1.78-1.78Z"/>
        <path class="cls-2" d="m5.92,7.14c0-.99-.8-1.79-1.78-1.79s-1.79.8-1.79,1.79.8,1.78,1.79,1.78,1.78-.8,1.78-1.78Z"/>
        <path class="cls-2" d="m17.29,26.88c0,.99.8,1.78,1.79,1.78s1.78-.8,1.78-1.78-.8-1.79-1.78-1.79-1.79.8-1.79,1.79Z"/>
        <path class="cls-2" d="m13,26.88c0,.99.8,1.78,1.79,1.78s1.78-.8,1.78-1.78-.8-1.79-1.78-1.79-1.79.8-1.79,1.79Z"/>
        <path class="cls-2" d="m45.75,25.1c-.99,0-1.79.8-1.79,1.79s.8,1.78,1.79,1.78,1.78-.8,1.78-1.78-.8-1.79-1.78-1.79Z"/>
        <path class="cls-2" d="m39.68,26.88c0,.99.8,1.78,1.79,1.78s1.78-.8,1.78-1.78-.8-1.79-1.78-1.79-1.79.8-1.79,1.79Z"/>
        <circle class="cls-1" cx="116.05" cy="2.68" r="2.68"/>
        <path class="cls-2" d="m27.42,39.33h1.15l.41-1.29h1.87l.41,1.29h1.19l-1.86-5.34h-1.31l-1.85,5.34Zm2.5-4.32l.68,2.19h-1.39l.68-2.19h.03Z"/>
        <path class="cls-2" d="m35.3,34h-2.32v5.34h2.36c1.14,0,1.85-.59,1.85-1.53,0-.71-.53-1.23-1.26-1.29v-.03c.57-.08,1-.57,1-1.16,0-.82-.63-1.33-1.63-1.33Zm-1.2.83h.92c.52,0,.82.24.82.67,0,.45-.34.71-.94.71h-.8v-1.39Zm1.95,2.89c0,.51-.35.78-.99.78h-.96v-1.55h.93c.66,0,1.02.27,1.02.76Z"/>
        <path class="cls-2" d="m42.29,37.45v-3.45h-1.12v3.34c0,.68-.4,1.13-1.12,1.13s-1.12-.45-1.12-1.13v-3.34h-1.12v3.45c0,1.18.87,1.98,2.24,1.98h0c1.36,0,2.23-.8,2.23-1.98Z"/>
        <path class="cls-2" d="m44.67,34v5.34h2.04c1.6,0,2.54-.99,2.54-2.69s-.94-2.65-2.54-2.65h-2.04Zm3.44,2.65c0,1.15-.54,1.76-1.54,1.76h-.79v-3.49h.79c.98,0,1.54.61,1.54,1.73Z"/>
        <polygon class="cls-2" points="54.6 39.33 54.6 34 53.48 34 53.48 36.16 51.08 36.16 51.08 34 49.96 34 49.96 39.33 51.08 39.33 51.08 37.08 53.48 37.08 53.48 39.33 54.6 39.33"/>
        <path class="cls-2" d="m55.14,39.33h1.15l.41-1.29h1.87l.41,1.29h1.19l-1.86-5.34h-1.31l-1.85,5.34Zm2.5-4.32l.68,2.19h-1.39l.68-2.19h.03Z"/>
        <path class="cls-2" d="m64.65,35.33c0-.82-.63-1.33-1.63-1.33h-2.32v5.34h2.36c1.14,0,1.85-.59,1.85-1.53,0-.71-.53-1.23-1.26-1.29v-.03c.57-.08,1-.57,1-1.16Zm-2.84-.5h.92c.52,0,.82.24.82.67,0,.45-.34.71-.94.71h-.8v-1.39Zm1.95,2.89c0,.51-.35.78-.99.78h-.96v-1.55h.94c.66,0,1.02.27,1.02.76Z"/>
        <rect class="cls-2" x="65.54" y="34" width="1.12" height="5.34"/>
        <path class="cls-2" d="m71,34.79c.56,0,.95.27.99.72h1.05c-.02-.96-.8-1.6-2.04-1.6s-2.04.65-2.04,1.63c0,.78.48,1.28,1.47,1.49l.69.15c.64.14.9.34.9.68,0,.39-.41.68-1,.68s-1.05-.29-1.1-.73h-1.08c.03,1,.85,1.61,2.13,1.61s2.16-.65,2.16-1.69c0-.81-.47-1.27-1.53-1.5l-.65-.14c-.61-.14-.87-.33-.87-.65,0-.39.37-.66.92-.66Z"/>
        <path class="cls-2" d="m75.93,37.65c1.12,0,1.9-.73,1.9-1.83s-.75-1.83-1.85-1.83h-2.17v5.34h1.12v-1.68h1Zm-1-2.77h.76c.64,0,1.01.34,1.01.95s-.37.95-1.01.95h-.75v-1.9Z"/>
        <path class="cls-2" d="m83.47,36.67c0-1.7-.99-2.76-2.57-2.76s-2.57,1.06-2.57,2.76.99,2.76,2.57,2.76h0c1.58,0,2.57-1.06,2.57-2.76Zm-4.01,0c0-1.12.56-1.83,1.43-1.83s1.43.71,1.43,1.83-.56,1.82-1.43,1.82-1.43-.71-1.43-1.82Z"/>
        <path class="cls-2" d="m88.3,35.7c0-1.05-.7-1.7-1.93-1.7h-2.19v5.33h1.12v-1.95h.89l.99,1.95h1.26l-1.12-2.12c.61-.24.97-.83.97-1.52Zm-2.04.87h-.96v-1.7h.95c.55,0,.9.33.9.85s-.33.85-.89.85Z"/>
        <polygon class="cls-2" points="91.42 39.33 91.42 34.92 92.96 34.92 92.96 34 88.76 34 88.76 34.92 90.3 34.92 90.3 39.33 91.42 39.33"/>
        <path class="cls-2" d="m95.56,38.54c-.59,0-1.05-.29-1.1-.73h-1.08c.03,1,.85,1.61,2.13,1.61s2.16-.65,2.16-1.69c0-.81-.47-1.27-1.53-1.5l-.65-.14c-.61-.14-.87-.33-.87-.65,0-.39.37-.66.92-.66s.95.27.99.72h1.05c-.02-.96-.8-1.6-2.04-1.6s-2.04.65-2.04,1.63c0,.78.48,1.28,1.47,1.49l.69.15c.64.14.9.34.9.68,0,.39-.41.68-1,.68Z"/>
        <polygon class="cls-2" points="102.24 39.33 102.24 34.92 103.79 34.92 103.79 34 99.58 34 99.58 34.92 101.13 34.92 101.13 39.33 102.24 39.33"/>
        <polygon class="cls-2" points="108.99 34 107.78 34 106.56 38.18 106.53 38.18 105.31 34 104.06 34 105.85 39.33 107.2 39.33 108.99 34"/>
        <rect class="cls-2" x="64.8" y="5.35" width="4.28" height="17.94"/>
        <path class="cls-2" d="m49.58,25.58v4.28c3.64,0,6.6-2.93,6.66-6.55h6.42V5.35h-4.28v13.67s-2.14,0-2.14,0v-8.33h-4.28v12.5c0,1.31-1.07,2.38-2.38,2.38Z"/>
        <polygon class="cls-2" points="41.11 5.35 36.83 5.35 36.84 23.3 47.53 23.3 47.53 10.69 43.26 10.69 43.26 19.03 41.11 19.03 41.11 5.35"/>
        <path class="cls-2" d="m0,17.01H0c0,.82.16,1.68.51,2.54.91,2.26,3.15,3.69,5.58,3.72h0s.07,0,.07,0c0,0,0,0,0,0h0s2.97,0,2.97,0h0s1.37,0,1.37,0h24.18v-5.91c0-3.67-2.99-6.66-6.66-6.66h-6.82v8.29s-2.14,0-2.14,0v-8.28h-4.28v8.28s-2.14,0-2.14,0v-8.29h-3.51s-2.76,0-2.76,0h0C2.87,10.66-.01,13.5,0,17.01Zm28.03-2.03c1.31,0,2.38,1.07,2.38,2.38v1.64h-4.93v-4.02s2.55,0,2.55,0Zm-21.65-.08h1.99v4.19s-2.24,0-2.24,0h0c-.63,0-1.24-.31-1.57-.85-1.01-1.67.22-3.41,1.82-3.34Z"/>
        <path class="cls-2" d="m98.6,14.46c-1-.6-2.04.44-1.44,1.44.16.26.45.41.76.41h1.09v-1.09c0-.31-.15-.6-.41-.76Z"/>
        <path class="cls-2" d="m90.88,14.28h-.03c-.53.04-.89.5-.89,1.03v.99h1.12c.27,0,.54-.14.69-.37.54-.83-.08-1.71-.88-1.66Z"/>
        <path class="cls-2" d="m73.37,5.35v17.96h35.72V5.35h-35.72Zm18.31,4.32c.48,0,.86.39.86.86s-.39.86-.86.86-.86-.39-.86-.86.39-.86.86-.86Zm-14.11,11.26c-.48,0-.86-.39-.86-.86s.39-.86.86-.86.86.39.86.86-.39.86-.86.86Zm2.07,0c-.48,0-.86-.39-.86-.86s.39-.86.86-.86.86.39.86.86-.39.86-.86.86Zm4.6,0c-.48,0-.86-.39-.86-.86s.39-.86.86-.86.86.39.86.86-.39.86-.86.86Zm6.63-2.6h-6v-4.03h-1.19v4.05h-8.18v-2.01h6.17v-4.07h5.23v4.05h1.04v-.97c0-.09,0-.18,0-.27v-5.4h2.03v2.74c.28-.1.59-.15.91-.15h.07c1.73,0,3.13,1.44,3.05,3.18-.08,1.63-1.49,2.89-3.12,2.89Zm12.34,2.6c-.48,0-.86-.39-.86-.86s.39-.86.86-.86.86.39.86.86-.39.86-.86.86Zm.86-2.59h-3.04c0,1.67-1.37,3.02-3.04,3.02v-2.03c.56,0,1.01-.45,1.01-1.01h0s-1.07,0-1.07,0c-1.19,0-2.29-.7-2.73-1.8-1.05-2.61,1.42-5.08,4.03-4.03,1.1.44,1.8,1.55,1.8,2.73v1.09h1.03v-4.07h2.01v6.09Zm.46-9.53s0-.03,0-.05,0-.04,0-.05c.02-.91.77-1.62,1.7-1.62h.48s.29,0,.29,0v1.06h-.8s-.03,0-.05,0c-.31.03-.56.29-.56.61s.25.59.56.61c.02,0,.03,0,.05,0h.8v1.06h-.64s-.13,0-.13,0c-.94,0-1.69-.71-1.7-1.62Zm2.64,9.53h-2.07v-7.01h2.07v7.01Z"/>
      </g>
    </g>
  </g>
</svg>