<?xml version="1.0" encoding="UTF-8"?>
<svg id="Layer_2" data-name="Layer 2" xmlns="http://www.w3.org/2000/svg" viewBox="0 0 84.48 67.19">
  <defs>
    <style>
      .cls-1 {
        fill: #65308f;
      }

      .cls-2 {
        fill: #522c77;
      }
    </style>
  </defs>
  <g id="Layer_1-2" data-name="Layer 1">
    <g id="Palms_Sports" data-name="Palms Sports">
      <g>
        <g>
          <path class="cls-1" d="m51.92,36.98c.02-.14-3.1,2.07-6.48,1.97-11.72-.35-23.71-27.57-26.99-38.95,3.45,14.31,15.72,44.79,22.76,42.99,3.82-.98,10.73-6.18,10.7-6.01Z"/>
          <path class="cls-1" d="m59.37,25.21c.02-.12-2.75,2.49-6.24,4.03-12.02,5.29-23.35-9.22-23.44-9.71.07.31,12.57,18.97,19.46,14.98,4.37-2.37,10.24-9.43,10.21-9.3Z"/>
          <path class="cls-1" d="m66.03,13.72c.01-.09-2.65,2.67-6.15,5.13-12.65,8.89-20.6,3.34-20.65,2.97.04.28,9.5,7.31,12.98,5.42,5.07-3.19,13.84-13.63,13.82-13.52Z"/>
          <path class="cls-1" d="m48.53,15.32c0,2.94-2.38,5.32-5.32,5.32s-5.32-2.38-5.32-5.32,2.38-5.32,5.32-5.32,5.32,2.38,5.32,5.32Z"/>
        </g>
        <g>
          <path class="cls-2" d="m4.88,61.95c1.09,0,1.63.48,1.63,1.45v1.08c0,.84-.51,1.27-1.52,1.27h-2.64l-.54-1.27h2.35c.48,0,.72-.18.72-.54v-.18c0-.36-.24-.54-.72-.54H1.63v3.98H0v-5.25h4.88Z"/>
          <path class="cls-2" d="m11.47,65.02l-.79-1.44-1.99,3.61h-1.63l2.71-5.25h1.81l2.71,5.25h-1.63l-.5-.91h-1.67l-.54-1.27h1.52Z"/>
          <path class="cls-2" d="m16.46,61.95v3.98h3.98v1.27h-4.52c-.72,0-1.09-.36-1.09-1.09v-4.16h1.63Z"/>
          <path class="cls-2" d="m25.51,65.02l1.63-2.53c.24-.36.6-.54,1.09-.54h1.45v5.25h-1.63v-3.44l-2.17,3.44h-.72l-2.17-3.44v3.44h-1.63v-5.25h1.45c.48,0,.84.18,1.09.54l1.63,2.53Z"/>
          <path class="cls-2" d="m32.2,61.95h3.08c1.09,0,1.63.42,1.63,1.27h-3.98c-.48,0-.72.12-.72.36h0c0,.19.24.27.72.27l2.36.18c1.08.12,1.62.6,1.62,1.45v.27c0,.96-.54,1.45-1.63,1.45h-3.08c-1.09,0-1.63-.42-1.63-1.27h4.16c.36,0,.54-.12.55-.36,0-.18-.18-.27-.55-.27l-2.53-.18c-1.09-.12-1.63-.6-1.63-1.45v-.27c0-.96.54-1.45,1.63-1.45Z"/>
          <path class="cls-2" d="m43.06,61.95h3.08c1.08,0,1.63.42,1.63,1.27h-3.98c-.48,0-.72.12-.72.36h0c0,.19.24.27.72.27l2.35.18c1.08.12,1.62.6,1.62,1.45v.27c0,.96-.54,1.45-1.63,1.45h-3.08c-1.09,0-1.63-.42-1.63-1.27h4.16c.36,0,.54-.12.55-.36,0-.18-.18-.27-.55-.27l-2.53-.18c-1.09-.12-1.63-.6-1.63-1.45v-.27c0-.96.54-1.45,1.63-1.45Z"/>
          <path class="cls-2" d="m79.78,61.95h3.08c1.08,0,1.63.42,1.63,1.27h-3.98c-.48,0-.72.12-.72.36h0c0,.19.24.27.72.27l2.35.18c1.08.12,1.62.6,1.62,1.45v.27c0,.96-.54,1.45-1.63,1.45h-3.08c-1.09,0-1.63-.42-1.63-1.27h4.16c.36,0,.54-.12.55-.36,0-.18-.18-.27-.55-.27l-2.53-.18c-1.09-.12-1.63-.6-1.63-1.45v-.27c0-.96.54-1.45,1.63-1.45Z"/>
          <path class="cls-2" d="m53.55,61.95c1.09,0,1.63.48,1.63,1.45v1.08c0,.84-.51,1.27-1.52,1.27h-2.64l-.54-1.27h2.35c.48,0,.72-.18.72-.54v-.18c0-.36-.24-.54-.72-.54h-2.53v3.98h-1.63v-5.25h4.88Z"/>
          <path class="cls-2" d="m57.71,61.95h3.62c1.09,0,1.63.48,1.63,1.45v2.35c0,.96-.54,1.45-1.63,1.45h-3.62c-1.09,0-1.63-.48-1.63-1.45v-2.35c0-.96.54-1.45,1.63-1.45Zm0,1.81v1.63c0,.36.24.54.72.54h2.17c.48,0,.72-.18.72-.54v-1.63c0-.36-.24-.54-.72-.54h-2.17c-.48,0-.72.18-.72.54Z"/>
          <path class="cls-2" d="m68.02,64.48c.48,0,.72-.18.72-.54v-.18c0-.36-.24-.54-.72-.54h-2.53v3.98h-1.63v-5.25h4.88c1.09,0,1.63.48,1.63,1.45v1.08c0,.36-.12.6-.37.72.24.12.37.36.37.72v1.27h-1.63v-.91c0-.36-.24-.54-.72-.54h-1.81l-.54-1.27h2.35Z"/>
          <path class="cls-2" d="m71.28,61.95h5.97v1.27h-5.97v-1.27Zm2.17,1.45l1.63.36v3.44h-1.63v-3.8Z"/>
        </g>
        <g>
          <g>
            <rect class="cls-2" x="83.05" y="57" width="1.35" height="1.26"/>
            <path class="cls-2" d="m82.96,51.87v2.06c0,.71-.26,1.06-.77,1.06h-3.33c-1.12,0-1.3-.39-1.3-1.13v-4.42l-1.52.34v4.87c0,1.12.67,1.79,1.84,1.79h4.65c.63,0,1.13-.22,1.49-.66.31-.38.48-.86.48-1.43v-2.82l-1.52.34Z"/>
            <rect class="cls-2" x="55.5" y="49.46" width="1.35" height="1.25"/>
            <path class="cls-2" d="m73.41,53.94c0,.71-.26,1.06-.77,1.06h-1.79v-1.38c0-.77-.43-1.16-1.3-1.16h-2.45c-.87,0-1.3.39-1.3,1.16v1.38h-8.85v-3.46l-1.53.34v3.71c0,.96-.5,1.43-1.5,1.43v1.23c1.73,0,2.7-.6,2.95-1.79h8.95c.08.62.51.93,1.29.93h2.45c.78,0,1.2-.31,1.28-.93h2.12c.64,0,1.14-.22,1.5-.66.31-.38.48-.86.48-1.43v-4.9l-1.52.34v4.14Zm-3.86,2.01c0,.29-.19.43-.58.43h-1.29c-.39,0-.58-.15-.58-.43v-2.04c0-.29.19-.43.58-.43h1.29c.39,0,.58.15.58.43v2.04Z"/>
          </g>
          <g>
            <rect class="cls-2" x="2.98" y="48.2" width="1.35" height="1.26"/>
            <rect class="cls-2" x="5.02" y="48.2" width="1.35" height="1.26"/>
            <rect class="cls-2" x="12.97" y="57" width="1.35" height="1.26"/>
            <rect class="cls-2" x="15.01" y="57" width="1.35" height="1.26"/>
            <path class="cls-2" d="m24.76,51.51c-1.22,0-2.49.74-3.45,1.99v-1.44l-1.52.34v1.56c0,.78-.27,1.04-.77,1.04h-2.68c.12-.34.17-.69.17-1.1v-2.37l-1.53.34v2.08c0,.7-.25,1.04-.76,1.04h-6.2c-.68,0-1.04-.33-1.1-.93h-.01v-3.59H1.78c-1.19,0-1.78.53-1.78,1.58v1.19c0,.92.55,1.39,1.66,1.39h2.89l.59-1.39h-2.57c-.53,0-.79-.2-.79-.59v-.2c0-.4.26-.59.79-.59h2.77v2.21h0v.12h0c.02.85.52,2.26,1.92,2.26h20.42c.03-.34.06-.67.06-1,0-2.45-1.04-3.94-2.99-3.94Zm1.39,3.49h-4.45c.84-1.43,1.84-2.16,2.95-2.16.96,0,1.51.85,1.51,1.97v.19Z"/>
            <rect class="cls-2" x="23.83" y="49.46" width="1.36" height="1.25"/>
            <rect class="cls-2" x="33.99" y="57" width="1.35" height="1.26"/>
            <rect class="cls-2" x="36.03" y="57" width="1.36" height="1.26"/>
            <path class="cls-2" d="m35.96,53.94c0,.71-.26,1.06-.77,1.06h-3.33c-1.12,0-1.3-.39-1.3-1.13v-4.42l-1.52.34v4.87c0,1.12.67,1.79,1.84,1.79h4.65c.63,0,1.13-.22,1.49-.66.31-.38.48-.86.48-1.43v-2.82l-1.52.34v2.06Z"/>
            <polygon class="cls-2" points="49.12 49.79 49.12 56.45 50.64 56.45 50.64 49.45 49.12 49.79"/>
            <path class="cls-2" d="m46.49,53.94c0,.71-.26,1.06-.77,1.06h-4.3v-3.46l-1.53.34v3.71c0,.96-.5,1.43-1.5,1.43v1.23c1.73,0,2.7-.6,2.95-1.79h4.69c.64,0,1.14-.22,1.5-.66.32-.38.48-.86.48-1.43v-4.9l-1.52.34v4.14Z"/>
          </g>
        </g>
      </g>
    </g>
  </g>
</svg>