<?xml version="1.0" encoding="UTF-8"?>
<svg id="Layer_2" data-name="Layer 2" xmlns="http://www.w3.org/2000/svg" viewBox="0 0 141.85 45.35">
  <defs>
    <style>
      .cls-1 {
        fill: #bc955c;
      }

      .cls-2 {
        fill: #231f20;
      }
    </style>
  </defs>
  <g id="Layer_1-2" data-name="Layer 1">
    <g id="ADSC">
      <g>
        <g>
          <path class="cls-2" d="m60.7,13.45h1.86c.16,0,.3-.14.33-.29l.81-3.28h4.03l.81,3.28c.04.15.18.29.33.29h1.86c.18,0,.32-.12.32-.29,0-.02-.02-.05-.02-.09l-2.87-10.81c-.42-1.6-1.68-1.76-2.44-1.76s-2.02.16-2.44,1.76l-2.87,10.81s-.02.07-.02.09c0,.17.14.29.32.29m4.73-10.65c.05-.21.11-.28.28-.28s.23.07.28.28l1.26,5.12h-3.08l1.26-5.12Z"/>
          <path class="cls-2" d="m72.99,13.14c1.09.28,2.4.45,3.52.45,2.82,0,4.19-1.64,4.19-4.33v-1.33c0-2.69-1.37-4.33-4.19-4.33-.42,0-1.03.03-1.68.12V.67c0-.19-.16-.34-.35-.34h-1.61c-.19,0-.35.16-.35.34v12c0,.26.07.36.47.47m1.84-7.55c.49-.07,1.26-.12,1.68-.12,1.51,0,1.88,1.05,1.88,2.46v1.33c0,1.41-.37,2.47-1.88,2.47-.63,0-1.35-.05-1.68-.12v-6.02Z"/>
          <path class="cls-2" d="m85.66,13.57c1.12,0,1.84-.28,2.75-.86v.4c0,.19.16.34.35.34h1.61c.19,0,.35-.16.35-.34V4.09c0-.19-.16-.36-.35-.36h-1.61c-.19,0-.35.17-.35.36v6.9c-.49.26-1.33.69-1.98.69-.54,0-.84-.1-1.09-.31-.33-.29-.4-.79-.4-1.66v-5.62c0-.19-.16-.36-.35-.36h-1.61c-.19,0-.35.17-.35.36v5.62c0,1.43.23,2.5.88,3.14.51.5,1.28.72,2.16.72"/>
          <path class="cls-2" d="m98.02,13.38c.53.09,2.21.21,3.45.21,3.51,0,5.5-1.86,5.5-5.28v-2.53c0-3.41-2-5.28-5.5-5.28-1.24,0-2.93.12-3.45.21-.3.05-.45.19-.45.54v11.6c0,.34.16.48.45.54m1.98-10.81c.37-.02.82-.05,1.47-.05,1.75,0,3.09.67,3.09,3.26v2.53c0,2.59-1.33,3.26-3.09,3.26-.65,0-1.1-.04-1.47-.05V2.57Z"/>
          <path class="cls-2" d="m109.43,13.45h1.61c.19,0,.35-.17.35-.36v-6.97c.74-.38,1.44-.59,2.03-.59,1.17,0,1.44.38,1.44,1.88v5.67c0,.19.16.36.35.36h1.61c.19,0,.35-.17.35-.36v-5.67c0-2.12-.72-3.81-3.14-3.81-1.24,0-1.98.24-2.65.64V.67c0-.19-.16-.34-.35-.34h-1.61c-.19,0-.35.16-.35.34v12.41c0,.19.16.36.35.36"/>
          <path class="cls-2" d="m122.12,13.59c.84,0,1.66-.28,2.47-.76v.28c0,.19.16.34.35.34h1.49c.19,0,.35-.15.35-.34v-6.21c0-2.21-1.37-3.29-3.86-3.29-1.21,0-2.23.14-2.93.28-.23.05-.33.17-.33.36v1.1c0,.24.14.29.32.29h.09c.58-.07,1.73-.14,2.86-.14,1.03,0,1.54.28,1.54,1.4v.76h-1.1c-3.05,0-4.28,1.02-4.28,2.98v.07c0,2.33,1.58,2.88,3.03,2.88m-.7-2.95c0-.97.35-1.47,1.95-1.47h1.1v2.12c-.51.28-1.16.48-1.79.48-.88,0-1.26-.22-1.26-1.07v-.07Z"/>
          <path class="cls-2" d="m129.53,13.14c1.09.28,2.4.45,3.52.45,2.82,0,4.19-1.64,4.19-4.33v-1.33c0-2.69-1.37-4.33-4.19-4.33-.42,0-1.03.03-1.68.12V.67c0-.19-.16-.34-.35-.34h-1.61c-.19,0-.35.16-.35.34v12c0,.26.07.36.47.47m1.84-7.55c.49-.07,1.26-.12,1.68-.12,1.51,0,1.88,1.05,1.88,2.46v1.33c0,1.41-.37,2.47-1.88,2.47-.63,0-1.35-.05-1.68-.12v-6.02Z"/>
          <path class="cls-2" d="m139.54,2.43h1.7c.19,0,.35-.15.35-.34V.57c0-.19-.16-.34-.35-.34h-1.7c-.19,0-.37.15-.37.34v1.52c0,.19.18.34.37.34"/>
          <path class="cls-2" d="m141.19,3.73h-1.61c-.19,0-.35.15-.35.34v9.02c0,.19.16.36.35.36h1.61c.19,0,.35-.17.35-.36V4.07c0-.19-.16-.34-.35-.34"/>
          <path class="cls-2" d="m62.48,22.58l.94.58c1.6.98,2.02,1.27,2.02,2.12,0,.91-.28,1.83-2.39,1.83-.72,0-1.58-.07-2.11-.14-.03,0-.06,0-.08,0-.31,0-.52.19-.52.49v.06c0,.44.42.51.6.54.34.05,1.06.14,2.12.14,2.93,0,3.55-1.59,3.55-2.92,0-1.47-.99-2.16-2.62-3.12l-.91-.55c-1.33-.79-1.8-1.22-1.8-2.04,0-.57.25-1.33,2.42-1.33.6,0,1.79.1,1.91.11.06,0,.11,0,.16,0,.51,0,.55-.37.55-.48v-.07c0-.47-.44-.51-.6-.53-.44-.06-1.41-.13-2.01-.13-2.31,0-3.58.86-3.58,2.42,0,1.47.98,2.18,2.35,3.01"/>
          <path class="cls-2" d="m73.52,24.61v-.92c0-2.35-1.08-3.65-3.04-3.65-1.01,0-2.12.21-2.45.27-.28.07-.4.23-.4.51v9.51c0,.29.22.52.49.52h.14c.27,0,.49-.23.49-.52v-2.28c.54.09,1.22.16,1.73.16,1.39,0,3.04-.62,3.04-3.59m-3.04,2.55c-.47,0-1.19-.05-1.73-.14v-5.79c.4-.06,1.09-.15,1.73-.15,1.34,0,1.91.78,1.91,2.6v.92c0,1.81-.55,2.55-1.91,2.55"/>
          <path class="cls-2" d="m77.76,28.2c2.05,0,3.18-1.28,3.18-3.59v-.98c0-2.32-1.13-3.59-3.18-3.59s-3.18,1.28-3.18,3.59v.98c0,2.32,1.13,3.59,3.18,3.59m0-7.12c1.4,0,2.05.81,2.05,2.55v.98c0,1.74-.65,2.55-2.05,2.55s-2.05-.81-2.05-2.55v-.98c0-1.74.65-2.55,2.05-2.55"/>
          <path class="cls-2" d="m85.71,20.61v-.11c0-.17-.08-.46-.63-.46-.62,0-1.14.13-1.74.46-.05-.23-.25-.39-.49-.39h-.11c-.29,0-.51.23-.51.53v6.97c0,.28.24.52.52.52h.09c.28,0,.52-.24.52-.52v-5.98c.8-.47,1.32-.53,1.73-.53.55,0,.63-.3.63-.47"/>
          <path class="cls-2" d="m91.21,27.68v-.08c0-.11-.04-.45-.55-.45h-.68c-.54,0-.73-.06-.73-.72v-5.26h1.44c.3,0,.52-.2.52-.47v-.14c0-.27-.21-.46-.52-.46h-1.44v-1.19c0-.29-.21-.52-.48-.52h-.16c-.28,0-.49.22-.49.52v1.19h-1.16c-.31,0-.52.19-.52.46v.14c0,.28.22.47.52.47h1.16v5.26c0,1.56.99,1.76,1.86,1.76.27,0,.56-.02.77-.04.4-.06.46-.32.46-.47"/>
          <path class="cls-2" d="m92.5,28c.51.1,1.44.2,2.11.2,1.75,0,2.71-.78,2.71-2.2,0-1.11-.8-1.63-1.94-2.25l-.95-.52c-.85-.46-1.25-.77-1.25-1.24,0-.69.34-.92,1.36-.92.66,0,1.36.08,1.78.13l.16.02c.06,0,.1.01.15.01.13,0,.44-.05.44-.48v-.11c0-.41-.35-.46-.52-.49h-.09c-.47-.07-1-.13-1.97-.13-1.54,0-2.43.72-2.43,1.97,0,1.12.8,1.64,1.85,2.21l.91.49c1.18.63,1.38.88,1.38,1.3,0,.83-.44,1.15-1.55,1.15-.46,0-1.17-.08-2.05-.22-.35-.06-.61.14-.61.44v.15c0,.36.32.43.52.47"/>
          <path class="cls-2" d="m108.16,27.57v-.17c0-.2-.12-.42-.44-.42-.03,0-.07,0-.11,0-.48.05-1.55.12-2.43.12-1.71,0-2.61-1.21-2.61-3.51v-1.85c0-2.3.9-3.51,2.61-3.51.89,0,1.96.07,2.44.12.4.04.54-.19.54-.42v-.17c0-.28-.25-.46-.49-.49h-.07c-.41-.05-1.17-.14-2.42-.14-1.4,0-3.74.6-3.74,4.6v1.85c0,4,2.34,4.6,3.74,4.6,1.25,0,2.01-.09,2.42-.13h.06c.25-.03.49-.21.49-.49"/>
          <path class="cls-2" d="m115.37,23.63c0-2.32-1.13-3.59-3.18-3.59s-3.18,1.28-3.18,3.59v.98c0,2.32,1.13,3.59,3.18,3.59s3.18-1.28,3.18-3.59v-.98Zm-3.18,3.53c-1.4,0-2.05-.81-2.05-2.55v-.98c0-1.74.65-2.55,2.05-2.55s2.05.81,2.05,2.55v.98c0,1.74-.65,2.55-2.05,2.55"/>
          <path class="cls-2" d="m121.94,28.12h.11c.29,0,.51-.23.51-.53v-6.97c0-.28-.24-.52-.52-.52h-.09c-.28,0-.52.24-.52.52v6.03c-.55.23-1.29.49-2,.49-1.12,0-1.67-.61-1.67-1.87v-4.64c0-.28-.23-.52-.51-.52h-.1c-.29,0-.52.23-.52.52v4.64c0,1.83,1.03,2.92,2.75,2.92.64,0,1.35-.15,2.06-.45.06.22.25.38.49.38"/>
          <path class="cls-2" d="m124.67,20.1h-.11c-.29,0-.51.23-.51.53v6.96c0,.28.24.52.52.52h.08c.28,0,.52-.24.52-.52v-6.03c.7-.31,1.41-.48,2-.48,1.12,0,1.67.61,1.67,1.87v4.64c0,.28.23.52.51.52h.1c.29,0,.52-.23.52-.52v-4.64c0-1.86-1-2.92-2.75-2.92-.64,0-1.35.15-2.06.45-.06-.22-.25-.38-.49-.38"/>
          <path class="cls-2" d="m134.31,21.08c.45,0,1,.04,1.65.12.34.05.59-.14.59-.44v-.1c0-.29-.16-.46-.49-.5-.69-.08-1.33-.13-1.75-.13-1.95,0-3.07,1.31-3.07,3.59v.94c0,2.28,1.15,3.64,3.07,3.64.42,0,1.06-.05,1.75-.13.32-.04.49-.21.49-.5v-.1c0-.27-.2-.45-.48-.45-.04,0-.07,0-.1,0-.66.08-1.21.12-1.66.12-1.32,0-1.94-.82-1.94-2.59v-.94c0-1.74.62-2.55,1.94-2.55"/>
          <path class="cls-2" d="m138.34,28.2h.08c.28,0,.52-.24.52-.52v-7.06c0-.28-.24-.52-.52-.52h-.08c-.28,0-.52.24-.52.52v7.06c0,.28.24.52.52.52"/>
          <path class="cls-2" d="m138.34,19.22h.08c.29,0,.52-.23.52-.52v-1.04c0-.28-.24-.52-.52-.52h-.08c-.28,0-.52.24-.52.52v1.04c0,.28.23.52.52.52"/>
          <path class="cls-2" d="m141.35,17.22h-.14c-.27,0-.49.23-.49.52v9.94c0,.28.22.52.49.52h.14c.27,0,.49-.23.49-.52v-9.94c0-.29-.22-.52-.49-.52"/>
          <path class="cls-2" d="m63.79,41.69c-.07-.05-.14-.08-.22-.08h-.35c-.08,0-.16.03-.22.08-.08.06-.12.15-.12.25v.45c0,.09.04.17.11.23.07.06.14.09.23.09h.35c.08,0,.16-.03.23-.09.07-.06.11-.14.11-.23v-.45c0-.1-.04-.19-.12-.25"/>
          <path class="cls-2" d="m62.35,41.69c-.07-.05-.15-.08-.23-.08h-.33c-.09,0-.18.03-.24.08-.07.06-.11.15-.11.25v.45c0,.09.04.17.1.23.07.06.15.09.25.09h.33c.08,0,.16-.03.23-.08.1-.08.12-.17.12-.24v-.45c0-.1-.04-.19-.12-.25"/>
          <path class="cls-2" d="m71.66,33.41c-.09,0-.17.03-.23.09-.07.06-.11.15-.11.25v.48c0,.09.04.18.1.24.07.06.15.09.24.09h.38c.1,0,.18-.03.24-.09.07-.06.1-.15.1-.24v-.48c0-.1-.04-.19-.1-.25-.06-.06-.15-.09-.23-.09h-.39Z"/>
          <path class="cls-2" d="m73.9,35.88c-.22-.2-.49-.34-.8-.43-.31-.09-.66-.13-1.05-.13-.1,0-.24,0-.4.02-.17.01-.35.04-.54.08-.19.04-.39.1-.58.17-.11.04-.22.09-.32.15v-.08c0-.08-.03-.16-.09-.22-.06-.06-.14-.1-.23-.1h-.41c-.09,0-.17.03-.23.1-.06.06-.09.14-.09.22v2.99h-1.23c-.22,0-.28-.03-.29-.04,0,0-.03-.03-.03-.15v-2.15c0-.1-.03-.17-.08-.22-.04-.04-.1-.06-.17-.08-.17-.04-.37-.07-.57-.09-.2-.02-.41-.03-.61-.03-.67,0-1.2.15-1.58.46-.39.31-.59.81-.59,1.49v1.62c0,.1,0,.21,0,.34,0,.09,0,.2,0,.32-.1.02-.22.03-.34.03-.18,0-.35.01-.52.01-.44,0-.78-.06-1.03-.17-.24-.11-.42-.25-.54-.43-.12-.18-.2-.39-.24-.64-.04-.26-.06-.53-.06-.82,0-.1,0-.22.02-.37.01-.16.03-.3.05-.45,0-.11-.02-.19-.08-.25-.04-.04-.1-.08-.21-.08h-.37c-.17,0-.29.11-.32.29-.02.09-.03.19-.05.3-.01.11-.02.21-.03.32,0,.11-.02.2-.02.29,0,.09,0,.17,0,.22,0,.42.04.8.13,1.14.09.35.25.66.47.9.22.25.52.44.89.58.36.13.82.2,1.36.2.29,0,.57,0,.85-.03.28-.02.53-.05.76-.09.19-.04.3-.16.3-.32,0-.08.01-.18.01-.29v-.34c.01-.12.01-.23.01-.34v-1.9c0-.21.03-.38.08-.51.05-.12.11-.22.2-.29.09-.07.2-.12.33-.15.14-.03.3-.05.48-.05.1,0,.2,0,.28,0,.05,0,.11,0,.17.02v1.72c0,.4.09.67.28.84.18.16.47.24.89.24h4.65c.2,0,.41,0,.62,0h.59c.19-.01.33-.02.41-.03.15-.02.26-.07.32-.16.05-.07.1-.14.12-.22.03-.09.05-.19.06-.31.01-.12.03-.24.03-.36,0-.12.01-.24.01-.36,0-.12,0-.23,0-.32v-.18c0-.43-.06-.8-.17-1.11-.11-.31-.28-.57-.5-.77m-.43,2.77s-.03,0-.04,0h-2.91c-.11,0-.21,0-.32,0v-1.89c.1-.07.22-.13.35-.18.16-.06.33-.11.5-.14.17-.03.33-.06.47-.07.15-.01.26-.02.35-.02.29,0,.55.03.76.08.2.05.37.13.5.24.13.11.23.26.29.45.07.2.1.45.1.76v.16c0,.16,0,.28-.01.38-.01.11-.03.18-.03.21,0,.02-.01.03,0,.03Z"/>
          <path class="cls-2" d="m79.05,40.24h-.32c-.09,0-.17.03-.24.08-.08.06-.12.15-.12.26v.48c0,.09.04.17.12.24.07.06.15.09.24.09h.32c.1,0,.18-.03.25-.1.07-.07.1-.15.1-.23v-.48c0-.1-.04-.19-.1-.25-.07-.06-.15-.09-.25-.09"/>
          <path class="cls-2" d="m77.64,40.24h-.32c-.09,0-.17.03-.24.09-.07.06-.1.15-.1.25v.48c0,.09.03.17.1.23.06.07.15.1.24.1h.32c.1,0,.18-.03.25-.1.07-.07.11-.15.11-.24v-.48c0-.1-.04-.19-.11-.25-.07-.06-.15-.09-.25-.09"/>
          <path class="cls-2" d="m78.7,39.65c.1-.01.17-.03.24-.05.1-.04.17-.1.21-.16.04-.06.06-.12.08-.21.02-.14.03-.33.03-.59,0-.24,0-.51,0-.8v-.83c0-.12,0-.25,0-.39v-.51c-.01-.08-.04-.16-.1-.22-.06-.06-.14-.1-.23-.1h-.43c-.09,0-.17.04-.22.1-.05.06-.07.13-.07.21,0,.23.01.45.01.64s0,.38,0,.57v1.14c0,.09-.01.13-.02.16-.03,0-.09.02-.24.02h-.79c-.09,0-.16,0-.23-.02-.05,0-.1-.02-.13-.05-.03-.02-.05-.05-.07-.09-.01-.04-.03-.1-.03-.23v-5.24c0-.08-.03-.16-.08-.22-.06-.07-.14-.1-.23-.1h-.44c-.09,0-.17.04-.23.1-.05.06-.09.14-.09.22v5.41c0,.25.03.44.08.6.06.17.15.3.27.4.12.1.26.17.43.21.15.04.33.05.53.05h.77c.1,0,.21,0,.33,0,.12,0,.23,0,.34-.02.11,0,.2-.02.29-.03"/>
          <path class="cls-2" d="m84.18,32.71h-.44c-.08,0-.16.03-.22.09-.06.06-.09.14-.09.22v5.44c0,.09,0,.13-.02.16-.03,0-.09.02-.23.02h-1.34v-2.52c0-.08-.03-.16-.08-.22-.06-.06-.14-.1-.22-.1h-.43c-.09,0-.17.03-.22.1-.05.06-.08.13-.08.22v4.19c0,.13-.01.23-.04.3-.02.06-.05.1-.09.12-.04.03-.1.05-.18.06-.09.01-.2.02-.33.02h-.1c-.22,0-.3.14-.3.28v.38c0,.15.1.26.28.3.06,0,.11.01.16.01.05,0,.09,0,.12,0,.3,0,.56-.04.77-.11.23-.08.41-.24.55-.48.07-.13.12-.28.14-.44.02-.15.03-.32.03-.52v-.53h1.11c.1,0,.21,0,.33,0,.12,0,.23,0,.34-.02.11,0,.21-.02.3-.03.1-.01.18-.03.25-.05.1-.04.17-.1.21-.17.03-.06.05-.12.07-.2.01-.08.02-.16.03-.25,0-.09.01-.19.01-.28,0-.1,0-.19,0-.28v-5.39c0-.08-.03-.16-.08-.22-.06-.06-.14-.1-.22-.1"/>
          <path class="cls-2" d="m86.46,32.7h-.44c-.09,0-.17.04-.23.1-.06.06-.09.14-.09.22v6.35c0,.08.03.16.09.22.06.06.14.1.23.1h.44c.09,0,.17-.04.23-.11.05-.06.08-.14.08-.22v-6.35c0-.08-.03-.15-.08-.22-.06-.07-.14-.1-.23-.1"/>
          <path class="cls-2" d="m92.07,41.69c-.07-.05-.15-.08-.23-.08h-.33c-.09,0-.18.03-.24.08-.07.06-.11.15-.11.25v.45c0,.09.04.17.1.23.07.06.15.09.25.09h.33c.08,0,.16-.03.23-.08.1-.08.12-.17.12-.24v-.45c0-.1-.04-.19-.12-.25"/>
          <path class="cls-2" d="m93.51,41.69c-.07-.05-.14-.08-.22-.08h-.35c-.08,0-.16.03-.22.08-.08.06-.12.15-.12.25v.45c0,.09.04.17.11.23.07.06.14.09.23.09h.35c.08,0,.16-.03.23-.09.07-.06.11-.14.11-.23v-.45c0-.1-.04-.19-.12-.25"/>
          <path class="cls-2" d="m99.56,40.24h-.38c-.09,0-.17.03-.23.09-.07.06-.11.15-.11.25v.48c0,.09.04.17.11.23.07.06.15.1.24.1h.38c.09,0,.17-.03.24-.1.07-.07.11-.15.11-.23v-.48c0-.1-.04-.19-.11-.25-.07-.06-.15-.09-.23-.09"/>
          <path class="cls-2" d="m104.62,34.57c.1,0,.18-.03.24-.09.07-.06.1-.15.1-.24v-.48c0-.1-.04-.19-.1-.25-.07-.06-.15-.09-.24-.09h-.39c-.09,0-.17.03-.24.09-.07.06-.11.15-.11.25v.48c0,.09.04.18.1.24.06.06.15.09.24.09h.38Z"/>
          <path class="cls-2" d="m106.31,35.88c-.22-.2-.49-.34-.81-.43-.31-.09-.66-.13-1.06-.13-.1,0-.24,0-.4.02-.17.01-.35.04-.53.07-.19.04-.38.09-.58.16-.11.04-.22.09-.33.14v-2.69c0-.08-.03-.16-.09-.22-.06-.06-.14-.09-.22-.09h-.44c-.09,0-.16.03-.22.1-.05.06-.08.13-.08.22v5.62h-1.06c-.05,0-.11,0-.18,0-.06,0-.13-.01-.19-.03-.06-.01-.11-.03-.16-.05-.01,0-.02,0-.03-.03v-2.41c0-.08-.03-.16-.09-.22-.06-.06-.14-.09-.22-.09h-.41c-.08,0-.16.03-.22.09-.06.06-.09.14-.09.22v2.34c0,.06-.02.07-.03.08-.03.03-.06.05-.11.06-.06.02-.11.03-.17.03-.07,0-.13,0-.18,0h-.76c-.22,0-.28-.03-.29-.04,0,0-.03-.03-.03-.15v-2.15c0-.1-.03-.17-.09-.22-.04-.04-.1-.06-.17-.08-.17-.04-.36-.07-.57-.09-.2-.02-.41-.03-.61-.03-.67,0-1.2.15-1.58.46-.39.31-.59.81-.59,1.49v1.62c0,.1,0,.22,0,.34,0,.09,0,.2,0,.32-.1.02-.22.03-.34.03-.18,0-.35.01-.52.01-.44,0-.78-.06-1.03-.17-.24-.11-.42-.25-.54-.43-.12-.18-.2-.39-.24-.64-.04-.26-.06-.54-.06-.82,0-.1,0-.22.02-.37.01-.16.03-.3.05-.45,0-.11-.02-.19-.08-.25-.04-.04-.1-.08-.21-.08h-.37c-.17,0-.29.11-.32.29-.02.09-.03.19-.05.3-.01.11-.02.21-.03.32,0,.11-.02.2-.02.29,0,.09,0,.17,0,.22,0,.42.04.8.13,1.14.09.35.25.66.47.9.22.25.52.44.89.58.36.13.82.2,1.36.2.29,0,.57,0,.85-.03.28-.02.53-.05.76-.09.19-.04.3-.16.3-.32,0-.08.01-.18.01-.29v-.34c.01-.12.01-.23.01-.34v-1.9c0-.21.03-.38.08-.51.05-.12.11-.22.2-.29.09-.07.19-.12.33-.15.14-.03.3-.05.48-.05.1,0,.2,0,.28,0,.05,0,.11,0,.17.02v1.72c0,.4.09.67.28.84.18.16.47.24.89.24h.84c.17,0,.37-.02.58-.06.19-.03.36-.1.5-.2.14.1.31.16.5.2.22.04.43.06.62.06h4.28c.2,0,.41,0,.62,0h.59c.19-.01.33-.02.41-.03.14-.02.25-.07.33-.15.06-.07.1-.15.13-.22.03-.08.05-.19.06-.31.01-.11.02-.23.03-.35,0-.12.01-.24.01-.36,0-.12,0-.23,0-.32v-.19c0-.43-.06-.8-.16-1.1-.11-.31-.28-.57-.5-.77m-.37,2v.15c0,.16,0,.28-.01.38-.01.12-.02.18-.03.21,0,.01,0,.02-.01.03-.01,0-.02,0-.04,0h-2.91c-.11,0-.21,0-.32,0v-1.92c.1-.07.22-.13.35-.17.17-.06.34-.1.5-.14.16-.03.33-.06.48-.07.16-.01.28-.02.38-.02.28,0,.53.02.74.07.19.04.36.12.48.24.13.11.22.27.29.46.07.2.1.46.1.77"/>
          <path class="cls-2" d="m113.12,40.24h-.38c-.09,0-.17.03-.23.09-.07.06-.11.15-.11.25v.48c0,.09.04.17.11.23.07.06.15.1.24.1h.38c.09,0,.17-.03.24-.1.07-.07.11-.15.11-.23v-.48c0-.1-.04-.19-.11-.25-.07-.06-.15-.09-.23-.09"/>
          <path class="cls-2" d="m114.12,36.11c0-.08-.03-.16-.08-.22-.06-.06-.14-.1-.23-.1h-.43c-.09,0-.17.04-.22.1-.05.06-.07.13-.07.21,0,.23.01.45.01.64,0,.2,0,.39,0,.57v1.14c0,.09,0,.13-.02.16-.03,0-.09.02-.24.02h-1.2v-2.91c0-.08-.02-.15-.06-.2-.04-.04-.09-.07-.17-.1-.16-.05-.36-.09-.59-.11-.23-.02-.47-.03-.71-.03-.71,0-1.28.2-1.67.59-.4.39-.6.92-.6,1.58v.22c0,.66.18,1.17.53,1.51.35.33.85.5,1.48.5h.75v.21c0,.19-.04.35-.1.46-.06.11-.14.19-.25.26-.12.07-.26.11-.43.14-.18.03-.39.04-.62.04-.1,0-.22,0-.37,0-.16,0-.28,0-.39,0-.17,0-.29.11-.29.27v.39c0,.08.02.14.06.19.04.05.1.08.2.1.03,0,.09.01.18.02.08,0,.16.01.26.01h.28c.09.01.17.01.23.01.32,0,.61-.03.88-.09.28-.06.52-.16.72-.31.2-.15.37-.35.48-.59.11-.24.18-.54.19-.9v-.19h.99c.1,0,.21,0,.33,0,.12,0,.23,0,.34-.02.11,0,.2-.02.29-.03.1,0,.17-.03.24-.05.1-.04.17-.1.21-.16.04-.06.06-.13.08-.21.02-.14.03-.33.03-.59,0-.24,0-.51,0-.8v-.83c0-.12,0-.25,0-.39v-.51Zm-5.25,1.31c0-.37.1-.65.3-.84.2-.19.48-.29.83-.29.15,0,.27,0,.39,0,.07,0,.14,0,.21.01v2.35h-.74c-.36,0-.61-.08-.76-.24-.15-.16-.23-.44-.23-.82v-.18Z"/>
          <path class="cls-2" d="m116.14,33.17h-.44c-.09,0-.17.04-.23.1-.06.06-.09.14-.09.22v5.88c0,.08.03.16.09.22.06.06.14.1.23.1h.44c.09,0,.17-.04.23-.11.05-.06.08-.14.08-.22v-5.88c0-.08-.03-.15-.08-.22-.06-.07-.14-.11-.23-.11"/>
          <path class="cls-2" d="m116.47,32.15h-.57s-.02-.05-.04-.08c-.03-.06-.05-.14-.05-.24,0-.13.04-.26.33-.26.02,0,.21,0,.28,0,.16,0,.26-.1.26-.24v-.12c0-.11-.07-.2-.21-.25-.06-.01-.13-.02-.19-.03-.06,0-.12-.01-.18-.01-.3,0-.54.07-.71.21-.18.14-.27.37-.27.66,0,.1.01.2.04.31,0,.02.01.04.02.06-.2.03-.22.18-.22.23v.15c0,.12.08.25.3.25h1.2c.07,0,.13-.01.17-.03.08-.03.13-.12.13-.22v-.14c0-.12-.08-.25-.29-.25"/>
          <path class="cls-2" d="m134.31,40.24h-.38c-.09,0-.17.03-.23.09-.07.06-.11.15-.11.25v.48c0,.09.04.17.11.23.07.06.15.1.24.1h.38c.09,0,.17-.03.24-.1.07-.07.11-.15.11-.23v-.48c0-.1-.04-.19-.11-.25-.07-.06-.15-.09-.23-.09"/>
          <path class="cls-2" d="m139.77,35.31c-.63,0-1.13.18-1.47.53-.34.35-.52.86-.52,1.51v.86c0,.09,0,.16-.02.22-.01.04-.03.07-.05.09-.04.03-.08.05-.14.07-.05.02-.11.03-.16.04-.06,0-.11,0-.15,0h-.29s-.02,0-.03,0c0,0,0-.01-.01-.02l-.36-.9-.1-.23c-.18-.42-.37-.78-.57-1.05-.21-.28-.43-.5-.68-.66-.25-.16-.51-.27-.79-.33-.4-.08-.83-.11-1.31-.07-.16.01-.3.03-.43.06-.1.02-.17.05-.21.1-.03.04-.07.1-.07.21v.36c0,.09.03.16.09.21.05.04.12.06.21.06.02,0,.03,0,.06,0,.1-.01.22-.02.35-.03.13,0,.22-.01.27-.01.53,0,.95.1,1.24.31.3.2.54.52.73.96l.44,1.04h-4c-.05,0-.11,0-.18,0-.06,0-.13-.01-.19-.03-.06-.01-.11-.03-.16-.05-.01,0-.02,0-.03-.03v-5.5c0-.08-.03-.16-.08-.22-.06-.06-.14-.1-.22-.1h-.44c-.08,0-.16.03-.22.09-.06.06-.09.14-.09.22v5.44c0,.06-.02.07-.03.08-.03.03-.06.05-.11.06-.05.02-.11.03-.17.03-.07,0-.13,0-.18,0h-.47c-.05,0-.1,0-.13,0-.04,0-.1,0-.17,0-.07,0-.13-.02-.19-.03-.06-.01-.12-.03-.16-.05-.01,0-.02,0-.03-.03v-2.65c0-.08-.03-.16-.08-.22-.06-.06-.13-.1-.22-.1h-.43c-.09,0-.17.03-.22.1-.05.06-.08.14-.08.22v2.6s-.01.06-.02.07c-.03.03-.06.05-.11.06-.05.02-.11.03-.17.03-.07,0-.13,0-.19,0h-.11c-.15,0-.3-.01-.43-.03-.09-.01-.12-.04-.15-.08v-2.32c0-.08-.03-.16-.08-.22-.06-.06-.14-.1-.22-.1h-.42c-.08,0-.15.03-.21.09-.06.06-.09.14-.09.22v2.26c0,.05-.01.07-.02.07-.02.02-.05.04-.09.05-.05.02-.1.03-.16.04-.06,0-.12.01-.16.01h-.19s-.11,0-.18,0c-.06,0-.13-.01-.19-.03-.06-.01-.11-.03-.16-.05-.01,0-.02,0-.03-.03v-2.05c0-.08-.03-.16-.08-.22-.06-.07-.14-.11-.23-.11h-.42c-.09,0-.17.04-.23.1-.06.06-.09.14-.09.22v2.95c0,.11,0,.23,0,.35,0,.1,0,.2,0,.32-.09.01-.17.02-.25.03-.12,0-.23,0-.33,0-.43,0-.77-.05-1.02-.15-.24-.1-.42-.23-.54-.41-.12-.17-.2-.38-.24-.63-.04-.26-.06-.54-.06-.84,0-.05,0-.1,0-.17,0-.07,0-.14.01-.22l.02-.24c0-.08.01-.15.03-.22.02-.13-.02-.21-.06-.26-.04-.04-.1-.09-.22-.09h-.37c-.17,0-.29.11-.32.29-.02.09-.03.2-.05.32-.01.11-.02.23-.03.34,0,.11-.02.22-.02.32,0,.1,0,.18,0,.25,0,.43.05.82.14,1.16.1.35.26.65.48.89.23.24.53.42.9.55.36.12.82.18,1.35.18.21,0,.43-.01.65-.04.22-.03.44-.06.66-.11.08-.02.14-.05.19-.09.05-.04.1-.11.1-.23.01-.14.02-.34.02-.59,0-.12,0-.36,0-.52.04.01.08.02.13.03.13.02.24.03.33.03h.17c.23,0,.45-.02.65-.07.16-.04.31-.1.43-.18.14.1.28.16.43.2.18.04.38.06.6.06h.14c.21,0,.41-.02.59-.06.16-.03.31-.1.43-.19.14.09.31.16.5.19.22.04.41.06.58.06h.5c.17,0,.37-.02.58-.06.19-.04.36-.1.5-.2.06.04.12.07.18.1.1.04.21.08.31.1.1.02.21.04.32.05.1,0,.2.01.3.01h5.3c.26,0,.51-.03.73-.1.17-.05.32-.14.43-.25.15.15.33.26.55.34.27.1.58.15.93.15.68,0,1.19-.18,1.5-.53.31-.34.47-.85.47-1.5v-.45c0-.65-.17-1.16-.49-1.51-.33-.35-.82-.53-1.45-.53m-.95,2.12c0-.38.08-.66.22-.85.14-.18.39-.27.73-.27s.57.09.7.27c.14.19.21.48.21.85v.33c0,.4-.07.69-.21.85-.13.15-.37.23-.72.23-.25,0-.46-.04-.62-.12-.14-.07-.23-.21-.28-.43-.02-.13-.03-.29-.03-.47v-.39Z"/>
        </g>
        <path class="cls-1" d="m54.6,27.25c-.08-1.78-.5-4.66-1.99-8.28v-.03c-.43-1-.91-2.01-1.44-3.01-.03-.05-.15-.27-.3-.57-.1-.19-.19-.37-.28-.54l-.28-.56c-2.21-4.33-4.71-9.25-3.05-13.81,0-.01,0-.03.01-.04,0-.01,0-.02,0-.03v-.02s0,0,0,0c0-.01,0-.02,0-.04,0-.01,0-.02,0-.04,0,0,0-.02,0-.02v-.02s-.02-.03-.03-.04c0-.01-.01-.02-.02-.03,0,0-.01-.02,0,0l-.15-.12s-.03,0-.04,0c-.01,0-.02,0-.03,0l-.02.09v-.1h-.04s-.03,0-.04,0c-.01,0-.02,0-.04,0h-.04s-.03.03-.04.04c-.01,0-.02.01-.03.02,0,0-.02.01-.01,0l-.03.02c-5.87,5.4-7.73,12.99-4.73,19.35.52,1.1,1.26,2.39,2.04,3.76.59,1.03,1.26,2.2,1.89,3.39-3.57,7.24-11.25,10.14-16.88,12.25l-.25-.17c-.22-.14-.46-.31-.47-.31-2.38-1.67-4.71-3.14-9.21-4.32-1.81-.47-3.83-.76-5.3-.76-.43,0-.8.03-1.1.08-.14.02-.25.04-.34.06-.11.03-.46.11-.46.37v.1h.28c.41-.02.83-.02,1.24,0,2.07.06,3.88.46,5.97,1.03,2.84.78,5.14,1.94,6.61,2.8-5.2-2.03-9.42-2.47-12.11-2.47-3.15,0-4.97.59-4.99.6-.64.21-.9.4-.84.64l.02.1.1-.03s1.65-.56,4.74-.56c2.6,0,6.7.4,12.09,2.19-2.39-.62-5.18-1.14-8.5-1.14-.95,0-1.93.04-2.9.13-.36.03-.79.07-1.22.13-3.18.4-6.16,1.42-7.69,2.25-.62.33-.82.54-.74.76l.03.08.09-.03c.19-.07.4-.15.64-.25.49-.19,1.09-.43,1.77-.64,3.28-1,6.6-1.53,9.87-1.57.1,0,.2,0,.3,0,2.39,0,4.98.31,8.06.96-1.8-.17-3.2-.18-3.22-.18h-.1c-.27,0-.53,0-.8,0-.63,0-1.12,0-1.58.03-2.05.09-4.1.33-6.11.7-2.81.53-5.41,1.31-7.73,2.33-1.26.55-2.2,1.03-3.04,1.54-.52.31-.98.63-1.41.96l-.11.08c-.17.13-.34.26-.47.42-.08.1-.16.22-.18.35,0,0-.01.19.04.25l.03.03h.07l.02-.02c.06-.04.13-.09.2-.14.11-.08.23-.16.35-.24.54-.36,1.1-.72,1.68-1.05.07-.04,7.42-4.42,18.23-4.42,3.98,0,7.98.59,11.87,1.76l.14.04c1.51.47,3.1.76,4.7.84.32.03.63.04.92.04,1.84,0,4.15-.22,7.39-1.83,0,0,.56-.28,1.33-.8,3.33-2.16,5.63-4.66,6.82-7.43.03-.05.06-.09.06-.14.23-.55.42-1.11.56-1.68.01-.04.27-1.11.18-3.05m-.76,1.94c-.18-1.09-.54-2.3-1.1-3.68.19-1.28.29-2.31.32-3.19.67,2.36.93,4.66.78,6.88m-7.17-2.61c.46-.98.84-2.02,1.14-3.11.53.97.98,1.86,1.4,2.78-.35,1-.79,1.98-1.31,2.89-.34-.79-.74-1.64-1.23-2.57m2.43,6.29c-.17-.89-.47-1.87-.88-2.92.54-.88,1.01-1.82,1.38-2.78.25.59.49,1.18.72,1.8l.08.22c.12.31.23.63.34.95-.44.95-1,1.86-1.65,2.72m3.12-8.58c-.28-.61-.59-1.27-.96-2-.12-.23-.23-.45-.34-.67.16-1.58.16-3.22,0-4.69.39.78.74,1.52,1.04,2.24.48,1.38.56,2.78.26,5.11m-1.46-1.45c.42.83.88,1.77,1.28,2.73-.05.3-.1.61-.15.94-.15.92-.4,1.82-.74,2.7-.03-.09-.07-.18-.1-.25l-.08-.22c-.33-.88-.66-1.7-1.03-2.51.36-1.09.63-2.22.81-3.38m-.55-1.06c-.14,1.2-.37,2.38-.7,3.51-.43-.89-.9-1.79-1.46-2.79.27-1.16.48-2.35.62-3.52.43.74.94,1.65,1.54,2.8m.11-1.26c-.57-1.06-1.04-1.85-1.46-2.57l-.08-.13c.15-1.78.15-3.49,0-5.01.29.59.59,1.17.89,1.77l.1.19c.37,1.01.69,3.21.54,5.75m-2.15-3.76c-.45-.8-.84-1.58-1.24-2.64-.96-2.49-1.61-6.61-.91-10.19,0,0,0,0,0,0,.05,1.88.56,3.9,1.6,6.35.49,1.51.69,3.92.55,6.48m-1.89-2.39c.57,1.48,1.1,2.43,1.8,3.62-.11,1.21-.3,2.43-.55,3.63-.23-.39-.46-.79-.7-1.19l-.46-.79c-.85-1.45-2.14-3.64-2.55-6.59l-.02-.17c-.2-1.38-.67-4.62,1.57-9.21,0,0,0,0,0,0-.77,3.76-.1,8.07.91,10.71m-1.51-11.06c-2.37,4.8-1.87,8.21-1.66,9.67l.02.17c.44,3.08,1.76,5.35,2.64,6.84l.44.76c.34.58.73,1.24,1.09,1.87l-.05.21c-.25,1.03-.59,2.03-1.01,3-.55-1.03-1.14-2.05-1.66-2.97-.77-1.35-1.5-2.63-2.01-3.7-2.42-5.13-1.55-11.15,2.32-16.11l.03-.04c-.06.11-.12.22-.16.3m-13.77,35.51c5.73-2.17,12-5.23,15.28-11.45.46.92.85,1.75,1.16,2.53-1.08,1.68-2.47,3.18-4.14,4.47-3.31,2.56-7.45,4.05-12.3,4.45m12.72-3.91c1.6-1.23,2.95-2.65,4.03-4.23.38,1.06.64,2.04.76,2.92-1.47,1.73-3.06,2.86-3.87,3.38-2.98,1.9-5.65,2.31-6.65,2.46-.74.11-1.62.16-2.39.19-.84.04-2.23-.04-2.63-.06l-1.68-.14c.12,0,.25-.02.39-.03,4.56-.38,8.72-1.93,12.04-4.49m-11.07,5.32l.27.02c.39.03,1.82.11,2.71.07.79-.03,1.69-.08,2.47-.2,1.04-.16,3.82-.59,6.92-2.56.91-.58,2.25-1.56,3.58-3.01.02.7-.06,1.34-.23,1.92-.21.71-.57,1.34-1.08,1.87-.71.75-1.66,1.18-2.59,1.61l-.09.04c-1.02.47-1.97.79-2.91,1-1.16.25-2.39.37-3.78.37s-2.91-.23-4.76-.73c0,0-.75-.2-1.93-.55.44.05.93.1,1.43.14m16.38-3.56c.25-.84.32-1.8.21-2.85.7-.85,1.3-1.76,1.8-2.69.14.54.23,1.03.27,1.49.06.74,0,1.41-.17,2-.07.23-.16.5-.32.75-.18.28-.41.51-.65.76l-.07.07c-.25.25-.5.49-.75.72-.21.19-.41.36-.6.52.12-.25.22-.51.29-.77m2.45-6.47c.48-1.07.82-2.19,1.04-3.34.3.88.51,1.7.64,2.49.12.76.23,1.64,0,2.45-.02.06-.04.12-.06.19-.26.73-.7,1.41-1.15,2.05.15-1.1,0-2.36-.47-3.83"/>
      </g>
    </g>
  </g>
</svg>