<?xml version="1.0" encoding="UTF-8"?>
<svg id="Layer_2" data-name="Layer 2" xmlns="http://www.w3.org/2000/svg" viewBox="0 0 120.15 53.19">
  <defs>
    <style>
      .cls-1 {
        fill: #eb2127;
      }

      .cls-2 {
        fill: #0865b0;
      }

      .cls-3 {
        fill: #121620;
        fill-rule: evenodd;
      }
    </style>
  </defs>
  <g id="Layer_1-2" data-name="Layer 1">
    <g id="Premier_Motors_Defender_EN" data-name="Premier Motors Defender EN">
      <path class="cls-3" d="m15.3,53.19h11.99v-2.09s-9.42,0-9.42,0v-1.44h8.15v-1.92h-8.15v-1.45h9.42v-2.09s-11.98,0-11.98,0v8.99h0Zm29.19,0h11.99v-2.09s-9.42,0-9.42,0v-1.44h8.15v-1.92h-8.15v-1.45h9.42v-2.09s-11.98,0-11.98,0v8.99h0Zm46.66,0h11.99v-2.09s-9.42,0-9.42,0v-1.44h8.15v-1.92h-8.15v-1.45h9.42v-2.09s-11.98,0-11.98,0v8.99h0Zm-61.25,0h2.57v-3.53s8.15,0,8.15,0v-1.92h-8.15v-1.45h9.42v-2.09s-11.98,0-11.98,0v8.99h0Zm75.84,0h2.58s0-3.15,0-3.15h5.46v.02l2.64,3.13h3.42l-2.75-3.27c1.21-.36,2.09-1.48,2.09-2.8,0-1.61-1.32-2.92-2.93-2.92h-10.51v8.99h0Zm9.83-6.88s.04,0,.07,0c.44,0,.8.37.8.81s-.36.81-.8.81c-.01,0-.02,0-.04,0,0,0-.02,0-.03,0h-7.25v-1.63h7.23s0,0,.01,0h0ZM2.6,48.68v2.4h5.38c.67,0,1.17-.13,1.48-.37.31-.25.47-.64.47-1.17,0-.28.01-.56.01-.84h0v-.02c0-.28,0-.56-.01-.84,0-.53-.16-.92-.47-1.17-.31-.25-.81-.37-1.48-.37H2.6v2.38h0Zm10.05,1.62c-.05,1-.27,1.73-.8,2.19-.53.46-1.38.69-2.55.69H0v-8.99h9.3c1.16,0,2.01.23,2.55.69.53.46.75,1.19.8,2.19.06,1.07.06,2.1,0,3.22h0Zm65.79-1.62v2.4h5.38c.67,0,1.17-.13,1.48-.37.31-.25.47-.64.47-1.17,0-.28.01-.56.01-.84h0v-.02c0-.28,0-.56-.01-.84,0-.53-.16-.92-.47-1.17-.31-.25-.81-.37-1.48-.37h-5.38v2.38h0Zm10.05,1.62c-.05,1-.27,1.73-.8,2.19-.53.46-1.38.69-2.55.69h-9.3v-8.99h9.3c1.16,0,2.01.23,2.55.69.53.46.75,1.19.8,2.19.06,1.07.06,2.1,0,3.22h0Zm-18.47,2.89l-8.31-6.7v6.7h-2.63v-8.99s4.04,0,4.04,0l7.49,6.03v-6.03h2.63v8.99h-3.22Z"/>
      <g>
        <g>
          <path class="cls-2" d="m43.71,29.31l-.8-4.31-1.46,4.4h-.24l-1.51-4.4-.78,4.31h-.88l1.26-6.71h.42l1.6,4.9,1.47-4.9h.42l1.36,6.71h-.88Z"/>
          <path class="cls-2" d="m45.93,25.89c0-.97.24-1.79.73-2.44.49-.66,1.15-.98,1.98-.98.93,0,1.65.3,2.14.9.5.6.74,1.44.74,2.52s-.25,1.97-.75,2.59c-.5.63-1.21.94-2.14.94-.85,0-1.51-.33-1.99-.99-.48-.66-.72-1.51-.72-2.54Zm.97,0c0,.77.15,1.42.45,1.93.3.51.73.77,1.28.77.62,0,1.1-.24,1.42-.71.33-.47.49-1.14.49-1.99,0-1.73-.64-2.59-1.91-2.59-.57,0-1,.23-1.29.7-.3.47-.44,1.1-.44,1.9Z"/>
          <path class="cls-2" d="m55.96,23.42v5.89h-.92v-5.89h-2.15v-.82h5.3v.82h-2.24Z"/>
          <path class="cls-2" d="m59.58,25.89c0-.97.24-1.79.73-2.44.49-.66,1.15-.98,1.97-.98.93,0,1.64.3,2.14.9.5.6.74,1.44.74,2.52s-.25,1.97-.75,2.59c-.5.63-1.21.94-2.14.94-.85,0-1.51-.33-1.99-.99s-.72-1.51-.72-2.54Zm.97,0c0,.77.15,1.42.45,1.93.3.51.73.77,1.28.77.62,0,1.1-.24,1.42-.71.33-.47.49-1.14.49-1.99,0-1.73-.64-2.59-1.92-2.59-.57,0-1,.23-1.29.7-.29.47-.44,1.1-.44,1.9Z"/>
          <path class="cls-2" d="m70.9,29.31l-1.8-2.88c-.2,0-.53-.01-.97-.04v2.92h-.92v-6.72s.27-.01.71-.04c.44-.02.76-.03.96-.03,1.61,0,2.41.64,2.41,1.93,0,.42-.13.8-.39,1.14-.26.34-.57.55-.93.63l1.95,3.08h-1.04Zm-2.77-5.9v2.18c.22.03.43.05.64.05.55,0,.94-.09,1.19-.27.25-.18.37-.49.37-.95,0-.38-.13-.65-.4-.81-.27-.16-.69-.25-1.26-.25-.09,0-.27.01-.54.04Z"/>
          <path class="cls-2" d="m73.26,29l.34-.85c.17.13.38.23.64.32.25.08.48.13.68.13.36,0,.64-.1.86-.29.22-.19.32-.45.32-.75,0-.23-.06-.44-.18-.63-.12-.19-.42-.41-.91-.64l-.54-.25c-.46-.22-.78-.47-.96-.76-.18-.3-.27-.65-.27-1.06,0-.5.18-.92.53-1.25.35-.33.81-.5,1.37-.5.74,0,1.26.12,1.55.36l-.27.8c-.12-.09-.31-.17-.56-.25-.25-.08-.48-.12-.7-.12-.31,0-.56.09-.74.26-.18.18-.27.4-.27.68,0,.17.03.33.1.47.06.14.15.26.27.35.12.09.35.23.7.4l.55.26c.46.22.78.48.97.78.18.3.28.68.28,1.15,0,.5-.2.93-.61,1.28-.41.35-.95.53-1.63.53-.6,0-1.1-.14-1.53-.42Z"/>
        </g>
        <g>
          <path class="cls-2" d="m11.88,6.59c0,1.35-.44,2.58-1.31,3.67-.88,1.09-2.05,1.83-3.51,2.22-.63.17-1.32.29-2.06.36-.75.08-1.58.11-2.5.11l.03,5.9H.23c0-.56.02-1.59.04-3.1.01-1.51.02-3.84.02-6.99,0-1,0-2.23-.01-3.69,0-1.46-.02-3.07-.05-4.86.4,0,.79-.02,1.17-.02h.94c1.6,0,2.97.11,4.09.31,1.13.2,2.07.55,2.84,1.04.84.53,1.49,1.22,1.93,2.06.44.85.67,1.84.67,2.97Zm-2.38,0c0-.96-.22-1.77-.65-2.44-.44-.67-1.1-1.2-2-1.59-.56-.24-1.16-.39-1.81-.45-.65-.06-1.32-.09-2-.09h-.51c0,.11,0,.8-.03,2.09-.02,1.29-.03,2.31-.03,3.06,0,.69,0,1.5.02,2.43,0,.94.01,1.47.01,1.6h.56c.62,0,1.28-.04,1.98-.12.7-.09,1.3-.24,1.8-.46.87-.37,1.53-.89,1.99-1.54.46-.66.69-1.49.69-2.48Z"/>
          <path class="cls-2" d="m29.12,17.73l-1.75,1.43c-.2-.21-.93-1.02-2.17-2.42-1.24-1.39-3.16-3.57-5.75-6.54v-.12c.37-.09.84-.3,1.42-.61.58-.31,1.08-.65,1.48-1.01.34-.32.64-.71.9-1.17.26-.46.38-1.08.38-1.87,0-.71-.19-1.33-.56-1.85-.38-.51-.89-.89-1.55-1.13-.54-.2-1.1-.33-1.7-.37-.59-.04-1.14-.06-1.64-.06h-1.15c-.03,1.76-.04,3.32-.05,4.67,0,1.35-.01,2.3-.01,2.86,0,1.27,0,3,.02,5.18.02,2.18.03,3.55.04,4.11h-2.29c0-.56.02-1.63.04-3.24.02-1.6.02-3.59.02-5.98v-2.57c0-1.25-.02-3.54-.06-6.85.09,0,.56,0,1.39-.03.83-.02,1.6-.03,2.31-.03.81,0,1.59.05,2.35.14s1.5.29,2.22.6c.92.39,1.65.96,2.18,1.72.54.75.81,1.64.81,2.66,0,1.32-.41,2.42-1.22,3.29-.81.88-1.58,1.53-2.3,1.96v.07c1.27,1.49,2.67,3.02,4.19,4.6,1.52,1.58,2.33,2.43,2.45,2.55Z"/>
          <path class="cls-2" d="m45.88,18.84c-.08,0-.7,0-1.85-.01-1.15-.01-2.58-.01-4.28-.01-1.18,0-2.26,0-3.24.01-.98,0-1.81.01-2.49.01.02-.54.03-1.7.04-3.49.01-1.79.02-3.64.02-5.56,0-1.05,0-2.44-.01-4.16,0-1.73-.02-3.51-.05-5.36.66,0,1.48,0,2.48.01.99.01,2.01.01,3.06.01,1.77,0,3.22,0,4.33-.01,1.11-.01,1.72-.01,1.81-.01v1.94c-.09,0-.68,0-1.75-.02-1.07,0-2.41-.01-4.01-.01h-3.64c0,1.05,0,2.1-.01,3.14,0,1.05-.01,2.04-.01,2.96h3c1.63,0,3.08,0,4.37-.02,1.28-.01,1.97-.01,2.05-.01v1.93c-.07,0-.84,0-2.29-.01-1.45,0-2.78-.01-3.99-.01h-3.14c0,1.76,0,3.15,0,4.18,0,1.03.01,1.9.02,2.59.55.01,1.21.02,1.99.02.78,0,1.62,0,2.52,0,1.38,0,2.54,0,3.48-.01.94,0,1.47-.02,1.58-.02v1.91Z"/>
          <path class="cls-2" d="m74.66,18.57l-2.25.44-2.89-15.62h-.03c-.36.75-1.16,2.5-2.4,5.23-1.24,2.74-2.45,5.48-3.63,8.23h-1.92c-1.11-2.55-2.33-5.32-3.66-8.28-1.34-2.97-2.12-4.7-2.36-5.19v.04c-.06.24-.44,2.01-1.14,5.31-.7,3.31-1.36,6.72-2,10.25l-2.14-.39c.93-4,1.79-7.96,2.6-11.89.81-3.93,1.25-6.05,1.32-6.39l2.21-.32c.09.21.75,1.71,1.97,4.48,1.22,2.78,2.65,5.97,4.31,9.59h.08c1.26-2.84,2.6-5.87,4.01-9.08,1.41-3.21,2.14-4.88,2.2-5l2.1.17c.03.2.41,2.24,1.15,6.1.74,3.86,1.56,7.97,2.46,12.3Z"/>
          <path class="cls-2" d="m79.7,18.84h-2.29c0-.56.02-1.55.04-2.98.02-1.43.02-3.48.02-6.15,0-1.06,0-2.44-.01-4.16,0-1.72-.02-3.5-.05-5.34h2.29c-.01,1.33-.03,2.87-.04,4.63,0,1.76-.01,3.19-.01,4.31,0,2.82,0,5,.02,6.55.01,1.54.03,2.59.03,3.15Z"/>
          <path class="cls-2" d="m120.15,17.73l-1.75,1.43c-.2-.21-.93-1.02-2.17-2.42-1.24-1.39-3.16-3.57-5.75-6.54l.02-.12c.35-.09.82-.3,1.41-.61.58-.31,1.08-.65,1.48-1.01.34-.32.64-.71.9-1.17.25-.46.38-1.08.38-1.87,0-.71-.19-1.33-.56-1.85-.37-.51-.89-.89-1.55-1.13-.54-.2-1.1-.33-1.7-.37-.59-.04-1.14-.06-1.64-.06h-1.15c-.03,1.76-.04,3.32-.05,4.67,0,1.35,0,2.3,0,2.86,0,1.27,0,3,.02,5.18.01,2.18.03,3.55.04,4.11h-2.29c0-.56.02-1.63.04-3.24.02-1.6.02-3.59.02-5.98v-2.57c0-1.25-.02-3.54-.06-6.85.09,0,.56,0,1.39-.03.83-.02,1.6-.03,2.31-.03.81,0,1.59.05,2.35.14.76.09,1.5.29,2.23.6.92.39,1.64.96,2.18,1.72.54.75.81,1.64.81,2.66,0,1.32-.41,2.42-1.22,3.29-.81.88-1.58,1.53-2.3,1.96v.07c1.27,1.49,2.67,3.02,4.19,4.6,1.52,1.58,2.33,2.43,2.45,2.55Z"/>
          <g>
            <path class="cls-2" d="m85.74,15.35c-.01,1.79-.02,2.96-.04,3.49.68,0,1.51,0,2.49-.01.98-.01,2.06-.01,3.24-.01,1.7,0,3.13,0,4.27.01,1.15,0,1.77.01,1.85.01v-1.91c-.11,0-.64,0-1.58.02-.94.01-2.1.01-3.48.01-.9,0-1.74,0-2.52,0-.78,0-1.44-.01-1.99-.02,0-.7-.01-1.56-.02-2.59,0-.93,0-2.15,0-3.66-.87.26-1.57.64-2.2,1.14,0,1.2,0,2.38-.01,3.53Z"/>
            <path class="cls-2" d="m87.96,8.26c0-.92,0-1.9.01-2.95.01-1.04.01-2.09.01-3.14h3.64c1.6,0,2.93,0,4,.01,1.07.01,1.66.02,1.75.02V.27c-.09,0-.7,0-1.81.01s-2.56.01-4.33.01c-1.05,0-2.07,0-3.06-.01-.99-.01-1.81-.01-2.47-.01.02,1.85.04,3.63.05,5.36,0,1.73.01,3.11.01,4.16v.26c.65-.73,1.39-1.37,2.2-1.79Z"/>
            <path class="cls-1" d="m89.46,7.77c-.53.07-1.03.24-1.51.48-.81.42-1.55,1.06-2.2,1.79-2.13,2.38-3.38,5.74-3.38,5.74,1.27-1.73,2.2-3.05,3.37-3.97.63-.5,1.34-.88,2.2-1.14,1.42-.43,3.27-.55,5.97-.35,7.39.55,9.24-3.1,9.24-3.1-3.23,2.37-9.39,0-13.7.55Z"/>
          </g>
        </g>
      </g>
    </g>
  </g>
</svg>