<?xml version="1.0" encoding="UTF-8"?>
<svg xmlns="http://www.w3.org/2000/svg" xmlns:xlink="http://www.w3.org/1999/xlink" width="37px" height="37px" viewBox="0 0 37 37" version="1.1">
<g id="surface1">
<path style=" stroke:none;fill-rule:nonzero;fill:rgb(39.607844%,18.82353%,56.078434%);fill-opacity:1;" d="M 22.738281 20.359375 C 22.75 20.28125 21.382812 21.496094 19.902344 21.441406 C 14.769531 21.25 9.515625 6.300781 8.078125 0.0546875 C 9.59375 7.910156 14.964844 24.648438 18.050781 23.65625 C 19.722656 23.121094 22.75 20.265625 22.734375 20.359375 Z M 22.738281 20.359375 "/>
<path style=" stroke:none;fill-rule:nonzero;fill:rgb(39.607844%,18.82353%,56.078434%);fill-opacity:1;" d="M 26 13.898438 C 26.011719 13.828125 24.796875 15.261719 23.269531 16.109375 C 18.003906 19.011719 13.042969 11.046875 13.003906 10.777344 C 13.035156 10.949219 18.507812 21.195312 21.527344 19.003906 C 23.441406 17.703125 26.011719 13.824219 26 13.898438 Z M 26 13.898438 "/>
<path style=" stroke:none;fill-rule:nonzero;fill:rgb(39.607844%,18.82353%,56.078434%);fill-opacity:1;" d="M 28.921875 7.589844 C 28.921875 7.539062 27.757812 9.054688 26.226562 10.402344 C 20.683594 15.285156 17.203125 12.238281 17.183594 12.035156 C 17.199219 12.1875 21.34375 16.046875 22.867188 15.007812 C 25.085938 13.257812 28.929688 7.523438 28.921875 7.589844 Z M 28.921875 7.589844 "/>
<path style=" stroke:none;fill-rule:nonzero;fill:rgb(39.607844%,18.82353%,56.078434%);fill-opacity:1;" d="M 21.253906 8.464844 C 21.253906 10.082031 20.210938 11.386719 18.925781 11.386719 C 17.636719 11.386719 16.59375 10.082031 16.59375 8.464844 C 16.59375 6.851562 17.636719 5.542969 18.925781 5.542969 C 20.210938 5.542969 21.253906 6.851562 21.253906 8.464844 Z M 21.253906 8.464844 "/>
<path style=" stroke:none;fill-rule:nonzero;fill:rgb(32.156864%,17.254902%,46.666667%);fill-opacity:1;" d="M 2.136719 34.070312 C 2.617188 34.070312 2.851562 34.332031 2.851562 34.867188 L 2.851562 35.460938 C 2.851562 35.917969 2.628906 36.15625 2.183594 36.15625 L 1.027344 36.15625 L 0.792969 35.460938 L 1.820312 35.460938 C 2.03125 35.460938 2.136719 35.359375 2.136719 35.160156 L 2.136719 35.0625 C 2.136719 34.867188 2.03125 34.765625 1.820312 34.765625 L 0.714844 34.765625 L 0.714844 36.953125 L 0 36.953125 L 0 34.070312 Z M 2.136719 34.070312 "/>
<path style=" stroke:none;fill-rule:nonzero;fill:rgb(32.156864%,17.254902%,46.666667%);fill-opacity:1;" d="M 5.023438 35.753906 L 4.679688 34.96875 L 3.804688 36.945312 L 3.09375 36.945312 L 4.277344 34.0625 L 5.074219 34.0625 L 6.257812 36.945312 L 5.546875 36.945312 L 5.324219 36.449219 L 4.59375 36.449219 L 4.359375 35.75 L 5.023438 35.75 Z M 5.023438 35.753906 "/>
<path style=" stroke:none;fill-rule:nonzero;fill:rgb(32.156864%,17.254902%,46.666667%);fill-opacity:1;" d="M 7.210938 34.070312 L 7.210938 36.253906 L 8.953125 36.253906 L 8.953125 36.953125 L 6.972656 36.953125 C 6.65625 36.953125 6.496094 36.753906 6.496094 36.355469 L 6.496094 34.070312 Z M 7.210938 34.070312 "/>
<path style=" stroke:none;fill-rule:nonzero;fill:rgb(32.156864%,17.254902%,46.666667%);fill-opacity:1;" d="M 11.171875 35.753906 L 11.886719 34.367188 C 11.992188 34.167969 12.148438 34.070312 12.363281 34.070312 L 13 34.070312 L 13 36.953125 L 12.285156 36.953125 L 12.285156 35.0625 L 11.335938 36.953125 L 11.019531 36.953125 L 10.070312 35.0625 L 10.070312 36.953125 L 9.355469 36.953125 L 9.355469 34.070312 L 9.988281 34.070312 C 10.199219 34.070312 10.359375 34.167969 10.46875 34.367188 L 11.183594 35.753906 Z M 11.171875 35.753906 "/>
<path style=" stroke:none;fill-rule:nonzero;fill:rgb(32.156864%,17.254902%,46.666667%);fill-opacity:1;" d="M 14.101562 34.070312 L 15.449219 34.070312 C 15.929688 34.070312 16.164062 34.300781 16.164062 34.765625 L 14.421875 34.765625 C 14.210938 34.765625 14.105469 34.832031 14.105469 34.96875 C 14.105469 35.070312 14.210938 35.113281 14.421875 35.113281 L 15.457031 35.210938 C 15.929688 35.277344 16.164062 35.542969 16.164062 36.007812 L 16.164062 36.15625 C 16.164062 36.683594 15.929688 36.953125 15.449219 36.953125 L 14.101562 36.953125 C 13.625 36.953125 13.386719 36.71875 13.386719 36.253906 L 15.210938 36.253906 C 15.367188 36.253906 15.449219 36.1875 15.449219 36.058594 C 15.449219 35.957031 15.375 35.910156 15.210938 35.910156 L 14.101562 35.8125 C 13.625 35.746094 13.386719 35.480469 13.386719 35.011719 L 13.386719 34.867188 C 13.386719 34.339844 13.625 34.070312 14.101562 34.070312 Z M 14.101562 34.070312 "/>
<path style=" stroke:none;fill-rule:nonzero;fill:rgb(32.156864%,17.254902%,46.666667%);fill-opacity:1;" d="M 18.863281 34.070312 L 20.207031 34.070312 C 20.683594 34.070312 20.921875 34.300781 20.921875 34.765625 L 19.179688 34.765625 C 18.96875 34.765625 18.863281 34.832031 18.863281 34.96875 C 18.863281 35.070312 18.96875 35.113281 19.179688 35.113281 L 20.207031 35.210938 C 20.683594 35.277344 20.917969 35.542969 20.917969 36.007812 L 20.917969 36.15625 C 20.917969 36.683594 20.683594 36.953125 20.203125 36.953125 L 18.855469 36.953125 C 18.378906 36.953125 18.136719 36.71875 18.136719 36.253906 L 19.960938 36.253906 C 20.121094 36.253906 20.199219 36.1875 20.203125 36.058594 C 20.203125 35.957031 20.125 35.910156 19.960938 35.910156 L 18.855469 35.8125 C 18.378906 35.746094 18.136719 35.480469 18.136719 35.011719 L 18.136719 34.867188 C 18.136719 34.339844 18.378906 34.070312 18.855469 34.070312 Z M 18.863281 34.070312 "/>
<path style=" stroke:none;fill-rule:nonzero;fill:rgb(32.156864%,17.254902%,46.666667%);fill-opacity:1;" d="M 34.941406 34.070312 L 36.292969 34.070312 C 36.765625 34.070312 37.003906 34.300781 37.003906 34.765625 L 35.261719 34.765625 C 35.050781 34.765625 34.945312 34.832031 34.945312 34.96875 C 34.945312 35.070312 35.050781 35.113281 35.261719 35.113281 L 36.292969 35.210938 C 36.765625 35.277344 37 35.542969 37 36.007812 L 37 36.15625 C 37 36.683594 36.765625 36.953125 36.285156 36.953125 L 34.9375 36.953125 C 34.460938 36.953125 34.222656 36.71875 34.222656 36.253906 L 36.046875 36.253906 C 36.207031 36.253906 36.28125 36.1875 36.285156 36.058594 C 36.285156 35.957031 36.207031 35.910156 36.046875 35.910156 L 34.9375 35.8125 C 34.460938 35.746094 34.222656 35.480469 34.222656 35.011719 L 34.222656 34.867188 C 34.222656 34.339844 34.460938 34.070312 34.9375 34.070312 Z M 34.941406 34.070312 "/>
<path style=" stroke:none;fill-rule:nonzero;fill:rgb(32.156864%,17.254902%,46.666667%);fill-opacity:1;" d="M 23.453125 34.070312 C 23.929688 34.070312 24.167969 34.332031 24.167969 34.867188 L 24.167969 35.460938 C 24.167969 35.917969 23.945312 36.15625 23.5 36.15625 L 22.34375 36.15625 L 22.109375 35.460938 L 23.140625 35.460938 C 23.347656 35.460938 23.453125 35.359375 23.453125 35.160156 L 23.453125 35.0625 C 23.453125 34.867188 23.347656 34.765625 23.140625 34.765625 L 22.03125 34.765625 L 22.03125 36.953125 L 21.316406 36.953125 L 21.316406 34.070312 Z M 23.453125 34.070312 "/>
<path style=" stroke:none;fill-rule:nonzero;fill:rgb(32.156864%,17.254902%,46.666667%);fill-opacity:1;" d="M 25.277344 34.070312 L 26.859375 34.070312 C 27.339844 34.070312 27.574219 34.332031 27.574219 34.867188 L 27.574219 36.15625 C 27.574219 36.683594 27.339844 36.953125 26.859375 36.953125 L 25.277344 36.953125 C 24.796875 36.953125 24.5625 36.6875 24.5625 36.15625 L 24.5625 34.867188 C 24.5625 34.339844 24.796875 34.070312 25.277344 34.070312 Z M 25.277344 35.0625 L 25.277344 35.957031 C 25.277344 36.15625 25.378906 36.253906 25.589844 36.253906 L 26.539062 36.253906 C 26.753906 36.253906 26.855469 36.15625 26.855469 35.957031 L 26.855469 35.0625 C 26.855469 34.867188 26.753906 34.765625 26.539062 34.765625 L 25.589844 34.765625 C 25.378906 34.765625 25.277344 34.867188 25.277344 35.0625 Z M 25.277344 35.0625 "/>
<path style=" stroke:none;fill-rule:nonzero;fill:rgb(32.156864%,17.254902%,46.666667%);fill-opacity:1;" d="M 29.789062 35.460938 C 30 35.460938 30.105469 35.359375 30.105469 35.160156 L 30.105469 35.0625 C 30.105469 34.867188 30 34.765625 29.789062 34.765625 L 28.683594 34.765625 L 28.683594 36.953125 L 27.964844 36.953125 L 27.964844 34.070312 L 30.105469 34.070312 C 30.582031 34.070312 30.820312 34.332031 30.820312 34.867188 L 30.820312 35.460938 C 30.820312 35.65625 30.769531 35.789062 30.65625 35.851562 C 30.761719 35.917969 30.820312 36.054688 30.820312 36.25 L 30.820312 36.945312 L 30.105469 36.945312 L 30.105469 36.449219 C 30.105469 36.25 30 36.148438 29.789062 36.148438 L 28.996094 36.148438 L 28.761719 35.453125 L 29.789062 35.453125 Z M 29.789062 35.460938 "/>
<path style=" stroke:none;fill-rule:nonzero;fill:rgb(32.156864%,17.254902%,46.666667%);fill-opacity:1;" d="M 31.21875 34.070312 L 33.835938 34.070312 L 33.835938 34.765625 L 31.21875 34.765625 Z M 32.167969 34.867188 L 32.878906 35.0625 L 32.878906 36.953125 L 32.167969 36.953125 Z M 32.167969 34.867188 "/>
<path style=" stroke:none;fill-rule:nonzero;fill:rgb(32.156864%,17.254902%,46.666667%);fill-opacity:1;" d="M 36.375 31.355469 L 36.964844 31.355469 L 36.964844 32.042969 L 36.375 32.042969 Z M 36.375 31.355469 "/>
<path style=" stroke:none;fill-rule:nonzero;fill:rgb(32.156864%,17.254902%,46.666667%);fill-opacity:1;" d="M 36.335938 28.535156 L 36.335938 29.664062 C 36.335938 30.054688 36.21875 30.246094 35.996094 30.246094 L 34.539062 30.246094 C 34.046875 30.246094 33.96875 30.035156 33.96875 29.625 L 33.96875 27.199219 L 33.304688 27.386719 L 33.304688 30.058594 C 33.304688 30.675781 33.597656 31.042969 34.109375 31.042969 L 36.148438 31.042969 C 36.421875 31.042969 36.636719 30.921875 36.796875 30.679688 C 36.933594 30.472656 37.007812 30.210938 37.007812 29.894531 L 37.007812 28.347656 L 36.34375 28.535156 Z M 36.335938 28.535156 "/>
<path style=" stroke:none;fill-rule:nonzero;fill:rgb(32.156864%,17.254902%,46.666667%);fill-opacity:1;" d="M 24.308594 27.210938 L 24.898438 27.210938 L 24.898438 27.898438 L 24.308594 27.898438 Z M 24.308594 27.210938 "/>
<path style=" stroke:none;fill-rule:nonzero;fill:rgb(32.156864%,17.254902%,46.666667%);fill-opacity:1;" d="M 32.152344 29.671875 C 32.152344 30.058594 32.039062 30.253906 31.8125 30.253906 L 31.03125 30.253906 L 31.03125 29.492188 C 31.03125 29.074219 30.84375 28.859375 30.460938 28.859375 L 29.386719 28.859375 C 29.007812 28.859375 28.820312 29.074219 28.820312 29.492188 L 28.820312 30.253906 L 24.941406 30.253906 L 24.941406 28.355469 L 24.273438 28.539062 L 24.273438 30.578125 C 24.273438 31.105469 24.054688 31.363281 23.617188 31.363281 L 23.617188 32.039062 C 24.371094 32.039062 24.796875 31.707031 24.90625 31.054688 L 28.828125 31.054688 C 28.863281 31.394531 29.050781 31.566406 29.394531 31.566406 L 30.464844 31.566406 C 30.808594 31.566406 30.992188 31.394531 31.027344 31.054688 L 31.957031 31.054688 C 32.234375 31.054688 32.453125 30.933594 32.609375 30.691406 C 32.746094 30.484375 32.824219 30.21875 32.824219 29.910156 L 32.824219 27.21875 L 32.160156 27.402344 L 32.160156 29.675781 Z M 30.460938 30.777344 C 30.460938 30.933594 30.378906 31.011719 30.207031 31.011719 L 29.644531 31.011719 C 29.46875 31.011719 29.386719 30.929688 29.386719 30.777344 L 29.386719 29.65625 C 29.386719 29.492188 29.46875 29.417969 29.644531 29.417969 L 30.207031 29.417969 C 30.378906 29.417969 30.460938 29.5 30.460938 29.65625 Z M 30.460938 30.777344 "/>
<path style=" stroke:none;fill-rule:nonzero;fill:rgb(32.156864%,17.254902%,46.666667%);fill-opacity:1;" d="M 1.304688 26.519531 L 1.894531 26.519531 L 1.894531 27.210938 L 1.304688 27.210938 Z M 1.304688 26.519531 "/>
<path style=" stroke:none;fill-rule:nonzero;fill:rgb(32.156864%,17.254902%,46.666667%);fill-opacity:1;" d="M 2.199219 26.519531 L 2.789062 26.519531 L 2.789062 27.210938 L 2.199219 27.210938 Z M 2.199219 26.519531 "/>
<path style=" stroke:none;fill-rule:nonzero;fill:rgb(32.156864%,17.254902%,46.666667%);fill-opacity:1;" d="M 5.679688 31.355469 L 6.273438 31.355469 L 6.273438 32.042969 L 5.679688 32.042969 Z M 5.679688 31.355469 "/>
<path style=" stroke:none;fill-rule:nonzero;fill:rgb(32.156864%,17.254902%,46.666667%);fill-opacity:1;" d="M 6.574219 31.355469 L 7.164062 31.355469 L 7.164062 32.042969 L 6.574219 32.042969 Z M 6.574219 31.355469 "/>
<path style=" stroke:none;fill-rule:nonzero;fill:rgb(32.156864%,17.254902%,46.666667%);fill-opacity:1;" d="M 10.84375 28.335938 C 10.308594 28.335938 9.753906 28.746094 9.332031 29.429688 L 9.332031 28.640625 L 8.667969 28.828125 L 8.667969 29.683594 C 8.667969 30.109375 8.550781 30.253906 8.328125 30.253906 L 7.152344 30.253906 C 7.210938 30.066406 7.230469 29.875 7.230469 29.652344 L 7.230469 28.347656 L 6.5625 28.535156 L 6.5625 29.675781 C 6.5625 30.058594 6.449219 30.246094 6.230469 30.246094 L 3.511719 30.246094 C 3.214844 30.246094 3.058594 30.066406 3.03125 29.738281 L 3.027344 29.738281 L 3.027344 27.765625 L 0.78125 27.765625 C 0.257812 27.765625 0 28.054688 0 28.632812 L 0 29.289062 C 0 29.792969 0.242188 30.050781 0.726562 30.050781 L 1.992188 30.050781 L 2.25 29.289062 L 1.125 29.289062 C 0.894531 29.289062 0.78125 29.179688 0.78125 28.960938 L 0.78125 28.851562 C 0.78125 28.632812 0.894531 28.527344 1.125 28.527344 L 2.339844 28.527344 L 2.339844 29.808594 C 2.347656 30.277344 2.566406 31.050781 3.179688 31.050781 L 12.125 31.050781 C 12.136719 30.863281 12.148438 30.679688 12.148438 30.5 C 12.148438 29.15625 11.691406 28.335938 10.839844 28.335938 Z M 11.453125 30.253906 L 9.503906 30.253906 C 9.871094 29.46875 10.308594 29.066406 10.796875 29.066406 C 11.214844 29.066406 11.457031 29.535156 11.457031 30.148438 L 11.457031 30.253906 Z M 11.453125 30.253906 "/>
<path style=" stroke:none;fill-rule:nonzero;fill:rgb(32.156864%,17.254902%,46.666667%);fill-opacity:1;" d="M 10.4375 27.210938 L 11.03125 27.210938 L 11.03125 27.898438 L 10.4375 27.898438 Z M 10.4375 27.210938 "/>
<path style=" stroke:none;fill-rule:nonzero;fill:rgb(32.156864%,17.254902%,46.666667%);fill-opacity:1;" d="M 14.886719 31.355469 L 15.480469 31.355469 L 15.480469 32.042969 L 14.886719 32.042969 Z M 14.886719 31.355469 "/>
<path style=" stroke:none;fill-rule:nonzero;fill:rgb(32.156864%,17.254902%,46.666667%);fill-opacity:1;" d="M 15.78125 31.355469 L 16.375 31.355469 L 16.375 32.042969 L 15.78125 32.042969 Z M 15.78125 31.355469 "/>
<path style=" stroke:none;fill-rule:nonzero;fill:rgb(32.156864%,17.254902%,46.666667%);fill-opacity:1;" d="M 15.75 29.671875 C 15.75 30.058594 15.636719 30.253906 15.410156 30.253906 L 13.953125 30.253906 C 13.464844 30.253906 13.382812 30.039062 13.382812 29.632812 L 13.382812 27.207031 L 12.71875 27.390625 L 12.71875 30.066406 C 12.71875 30.679688 13.011719 31.050781 13.523438 31.050781 L 15.5625 31.050781 C 15.835938 31.050781 16.058594 30.929688 16.214844 30.6875 C 16.347656 30.480469 16.421875 30.214844 16.421875 29.902344 L 16.421875 28.355469 L 15.757812 28.539062 L 15.757812 29.671875 Z M 15.75 29.671875 "/>
<path style=" stroke:none;fill-rule:nonzero;fill:rgb(32.156864%,17.254902%,46.666667%);fill-opacity:1;" d="M 21.511719 27.390625 L 21.511719 31.050781 L 22.179688 31.050781 L 22.179688 27.207031 Z M 21.511719 27.390625 "/>
<path style=" stroke:none;fill-rule:nonzero;fill:rgb(32.156864%,17.254902%,46.666667%);fill-opacity:1;" d="M 20.363281 29.671875 C 20.363281 30.058594 20.25 30.253906 20.023438 30.253906 L 18.136719 30.253906 L 18.136719 28.355469 L 17.472656 28.539062 L 17.472656 30.578125 C 17.472656 31.105469 17.253906 31.363281 16.8125 31.363281 L 16.8125 32.039062 C 17.570312 32.039062 17.996094 31.707031 18.105469 31.054688 L 20.160156 31.054688 C 20.441406 31.054688 20.660156 30.933594 20.816406 30.691406 C 20.957031 30.484375 21.027344 30.21875 21.027344 29.910156 L 21.027344 27.21875 L 20.363281 27.402344 L 20.363281 29.675781 Z M 20.363281 29.671875 "/>
</g>
</svg>
