<?xml version="1.0" encoding="UTF-8"?>
<svg id="Layer_2" data-name="Layer 2" xmlns="http://www.w3.org/2000/svg" viewBox="0 0 132.46 43.12">
  <defs>
    <style>
      .cls-1 {
        fill: #a38a66;
      }
    </style>
  </defs>
  <g id="Layer_1-2" data-name="Layer 1">
    <g id="DSC">
      <g>
        <path class="cls-1" d="m51.18,43.08c-.42,0-.83-.03-1.22-.08-.4-.05-.73-.12-1.01-.2l.22-.87c.29.07.61.12.93.17.33.05.67.07,1.03.07.58,0,.99-.08,1.24-.24.24-.16.37-.41.37-.76,0-.11-.01-.22-.04-.32-.03-.1-.08-.18-.16-.26-.08-.08-.18-.14-.32-.2-.14-.05-.31-.09-.53-.12l-.84-.1c-.6-.07-1.05-.25-1.36-.55-.31-.3-.47-.68-.47-1.16v-.09c0-.63.23-1.09.7-1.38.47-.29,1.18-.44,2.13-.44.37,0,.72.02,1.04.07.32.04.64.11.96.2l-.21.86c-.24-.07-.5-.12-.8-.16-.29-.04-.62-.06-.98-.06-.56,0-.97.07-1.22.2-.25.14-.38.37-.38.71,0,.27.08.46.24.58.16.12.43.21.81.26l.82.12c.28.04.54.1.77.17.23.07.44.18.6.31.17.13.3.3.39.5.09.2.14.45.14.74v.09c0,1.28-.95,1.92-2.86,1.92"/>
        <path class="cls-1" d="m56.75,40.63v2.36h-1.31v-6.33h2.94c.4,0,.74.05,1.02.14.28.1.51.23.69.4.18.17.31.37.39.59.08.23.13.47.13.74v.21c0,.61-.21,1.08-.62,1.41-.41.33-1.02.49-1.82.49h-1.42Zm0-.87h1.29c.42,0,.73-.08.94-.24.21-.16.31-.41.31-.76v-.2c0-.34-.1-.59-.29-.77-.19-.18-.5-.26-.92-.26h-1.33v2.23Z"/>
        <path class="cls-1" d="m64.69,36.52c.61,0,1.11.07,1.5.21.39.14.69.34.92.6.22.26.38.56.47.92.09.36.13.75.13,1.18v.76c0,.43-.05.83-.14,1.19-.09.36-.25.66-.47.92-.22.26-.53.45-.92.6-.39.14-.89.21-1.48.21s-1.1-.07-1.49-.21c-.39-.14-.69-.34-.92-.6-.22-.26-.38-.56-.47-.92-.09-.36-.13-.75-.13-1.18v-.76c0-.43.05-.83.14-1.19.09-.36.26-.67.48-.92.23-.26.53-.46.92-.6.38-.14.87-.21,1.46-.21m.01,5.67c.27,0,.5-.03.71-.08.21-.05.38-.15.52-.3.14-.15.25-.35.32-.61.07-.26.11-.59.11-.99v-.78c0-.41-.03-.74-.1-1-.07-.26-.17-.46-.3-.6-.14-.15-.31-.24-.52-.3-.21-.05-.46-.08-.74-.08s-.5.03-.71.08c-.21.05-.39.15-.53.3-.14.15-.25.35-.32.6-.07.26-.11.59-.11,1v.78c0,.41.03.74.1,1,.07.25.18.46.32.6.14.15.31.25.52.3.21.05.45.08.73.08"/>
        <path class="cls-1" d="m74.49,38.69c0,.44-.12.81-.36,1.11-.24.3-.59.5-1.06.62l1.68,2.56h-1.42l-1.53-2.44h-1.26v2.44h-1.29v-6.33h3c.4,0,.74.05,1.02.15.28.1.51.23.69.4.18.17.31.36.39.58.08.22.13.46.13.72v.2Zm-3.95.95h1.4c.41,0,.71-.08.92-.23.21-.15.32-.4.32-.74v-.12c0-.66-.4-.99-1.19-.99h-1.45v2.08Z"/>
        <polygon class="cls-1" points="81.16 36.66 81.01 37.57 78.84 37.57 78.84 42.99 77.52 42.99 77.52 37.57 75.2 37.57 75.34 36.66 81.16 36.66"/>
        <path class="cls-1" d="m84.05,43.08c-.42,0-.83-.03-1.22-.08-.4-.05-.73-.12-1.01-.2l.22-.87c.29.07.6.12.93.17.33.05.67.07,1.03.07.58,0,.99-.08,1.24-.24.24-.16.37-.41.37-.76,0-.11-.01-.22-.04-.32-.03-.1-.08-.18-.16-.26-.08-.08-.18-.14-.32-.2-.14-.05-.31-.09-.53-.12l-.84-.1c-.6-.07-1.05-.25-1.36-.55-.31-.3-.47-.68-.47-1.16v-.09c0-.63.23-1.09.7-1.38.47-.29,1.18-.44,2.13-.44.37,0,.72.02,1.04.07.32.04.64.11.96.2l-.21.86c-.24-.07-.5-.12-.8-.16-.29-.04-.62-.06-.98-.06-.56,0-.97.07-1.22.2-.25.14-.38.37-.38.71,0,.27.08.46.24.58.16.12.43.21.81.26l.82.12c.28.04.54.1.77.17.23.07.44.18.6.31.17.13.3.3.39.5.09.2.14.45.14.74v.09c0,1.28-.95,1.92-2.86,1.92"/>
        <path class="cls-1" d="m93.97,43.08c-.62,0-1.13-.06-1.53-.18-.41-.12-.73-.3-.97-.54-.24-.24-.4-.54-.5-.9-.09-.36-.14-.78-.14-1.25v-.67c0-.45.05-.85.15-1.21.1-.36.27-.68.52-.93.25-.26.58-.46.99-.6.42-.14.94-.21,1.56-.21.3,0,.59.02.88.06.28.04.54.09.76.16l-.22.86c-.16-.04-.35-.08-.57-.11-.22-.03-.45-.05-.7-.05-.36,0-.67.03-.93.09-.26.06-.47.16-.63.32-.16.15-.28.36-.36.63-.07.27-.11.61-.11,1.02v.6c0,.41.03.74.1,1,.07.26.18.47.34.61.16.15.37.25.64.3.27.05.6.08.99.08.2,0,.43-.01.69-.03.26-.02.5-.05.73-.08l-.21.89c-.23.05-.48.08-.75.11-.27.03-.51.04-.75.04"/>
        <path class="cls-1" d="m99.61,36.52c.61,0,1.11.07,1.5.21.39.14.69.34.92.6.22.26.38.56.47.92.09.36.13.75.13,1.18v.76c0,.43-.05.83-.14,1.19-.09.36-.25.66-.47.92-.22.26-.53.45-.92.6-.39.14-.89.21-1.48.21s-1.1-.07-1.49-.21c-.39-.14-.69-.34-.92-.6s-.38-.56-.47-.92c-.09-.36-.13-.75-.13-1.18v-.76c0-.43.05-.83.14-1.19.09-.36.26-.67.48-.92.23-.26.53-.46.92-.6.38-.14.87-.21,1.46-.21m.01,5.67c.27,0,.5-.03.71-.08.21-.05.38-.15.52-.3.14-.15.25-.35.32-.61.07-.26.11-.59.11-.99v-.78c0-.41-.03-.74-.1-1-.07-.26-.17-.46-.3-.6-.14-.15-.31-.24-.52-.3s-.46-.08-.74-.08-.5.03-.71.08c-.21.05-.38.15-.53.3-.14.15-.25.35-.32.6-.07.26-.11.59-.11,1v.78c0,.41.03.74.11,1,.07.25.17.46.31.6.14.15.31.25.52.3.21.05.45.08.73.08"/>
        <path class="cls-1" d="m106.92,43.12c-.57,0-1.03-.06-1.4-.17-.37-.11-.66-.28-.87-.51-.21-.23-.36-.51-.45-.85-.08-.34-.13-.73-.13-1.18v-3.75h1.31v3.69c0,.36.03.65.08.89.05.24.14.43.26.57.12.14.28.24.48.3.2.06.45.09.75.09s.55-.03.75-.09c.2-.06.36-.16.48-.3.12-.14.2-.33.25-.57.05-.24.07-.53.07-.88v-3.7h1.31v3.76c0,.44-.04.83-.13,1.17-.09.34-.24.62-.46.84-.22.23-.51.4-.89.52-.37.12-.85.17-1.42.17"/>
        <polygon class="cls-1" points="112.6 36.66 115.84 41.17 115.84 36.66 117.05 36.66 117.05 42.99 115.89 42.99 112.66 38.47 112.66 42.99 111.45 42.99 111.45 36.66 112.6 36.66"/>
        <path class="cls-1" d="m121.73,43.08c-.62,0-1.13-.06-1.53-.18-.41-.12-.73-.3-.97-.54-.24-.24-.4-.54-.5-.9-.09-.36-.14-.78-.14-1.25v-.67c0-.45.05-.85.15-1.21.1-.36.27-.68.52-.93.25-.26.58-.46.99-.6.42-.14.94-.21,1.56-.21.3,0,.59.02.88.06.28.04.54.09.76.16l-.22.86c-.16-.04-.35-.08-.57-.11-.22-.03-.45-.05-.7-.05-.36,0-.67.03-.93.09-.26.06-.47.16-.63.32-.16.15-.28.36-.36.63-.07.27-.11.61-.11,1.02v.6c0,.41.03.74.1,1,.07.26.18.47.34.61.16.15.37.25.64.3.27.05.6.08.99.08.2,0,.43-.01.69-.03.26-.02.5-.05.73-.08l-.21.89c-.23.05-.48.08-.75.11-.27.03-.51.04-.75.04"/>
        <rect class="cls-1" x="124.77" y="36.66" width="1.31" height="6.33"/>
        <polygon class="cls-1" points="129.11 36.66 129.11 42.06 132.44 42.06 132.29 42.99 127.8 42.99 127.8 36.66 129.11 36.66"/>
        <path class="cls-1" d="m49.13,30.85v-15.85c.99.3,2.51.96,3.32,1.64v11.57c.9.15,2.51.24,4.01.24,1.85,0,3.47-.3,4.16-.81.99-.72,1.64-3.32,1.64-6.34,0-4.93-1.2-7-5.71-7h-5.44l-2.81-.36v-2.45h8.25c7.32,0,9.09,3.44,9.09,9.96,0,4.6-1.5,7.86-2.84,8.73-.99.63-3.53,1.17-6.28,1.17s-5.59-.21-7.39-.51"/>
        <path class="cls-1" d="m90.35,30.88v-15.94c1.05.3,2.66,1.02,3.32,1.64v3.53h4.81c2.57,0,3.71-.93,3.71-2.93s-.69-2.96-3.44-2.96h-6.43l-2.81-.27v-2.45h9.6c4.61,0,6.37,1.82,6.37,5.35,0,1.91-.69,3.2-.96,3.62l-4.04,2.21h-6.82v5.56c.9.15,2.72.27,4.22.27s3.5-.12,4.04-.45c.6-.33,1.08-1.44,1.08-2.9,0-1.02-.21-2.12-.69-2.96.78.03,2.66.51,3.29.78.42.63.66,1.76.66,2.63,0,2.48-1.14,4.4-2.15,4.93-.96.51-3.53.81-6.37.81-2.48,0-6.07-.24-7.39-.48"/>
        <path class="cls-1" d="m112.43,16.68c.84-.84,2.21-1.49,3.56-1.58l-2.33,8.85h6.88l-1.94-6.91-3.26-4.57,2.39-1.55,3.77,4.52,4.4,15.61h-3.41l-1.23-4.31h-8.25l-1.17,4.31h-3.38l3.98-14.35Z"/>
        <rect class="cls-1" x="128.75" y="11.51" width="3.32" height="19.52"/>
        <path class="cls-1" d="m77.86,31.5c-1.61,0-2.95-.17-3.98-.51-1.02-.34-1.84-.85-2.43-1.53-.59-.68-1.01-1.54-1.24-2.55-.24-1.03-.36-2.25-.36-3.62v-11.78h3.38v11.19c0,1.11.08,2.05.23,2.8.16.76.43,1.39.8,1.85.38.47.88.81,1.49,1,.59.19,1.34.28,2.23.28s1.64-.1,2.23-.28c.61-.2,1.11-.53,1.48-1.01.36-.46.61-1.09.75-1.85.13-.74.2-1.67.2-2.76v-11.22h3.38v11.81c0,1.36-.13,2.56-.37,3.58-.24,1-.67,1.86-1.27,2.54-.6.68-1.43,1.2-2.47,1.54-1.06.35-2.42.53-4.04.53"/>
        <path class="cls-1" d="m21.46.06C9.63.06,0,9.69,0,21.52s9.63,21.46,21.46,21.46,21.46-9.62,21.46-21.46S33.3.06,21.46.06m11.67,36.28c-2.45-.15-4.64-1.25-6.21-2.94,2.25-2.13,3.66-5.13,3.66-8.46,0-.83-.1-1.64-.27-2.44-.77-.39-1.66-.58-2.65-.61.35.98.53,2,.53,3.05,0,2.52-1.03,4.82-2.67,6.49-.69-1.29-1.08-2.75-1.08-4.3,0-2.53,1.02-4.82,2.67-6.49,0,0,.45-.48,1.16-1.01,1.51-1.07,3.44-1.75,5.43-1.75.12,0,.44,0,.62.02.5.03.95.1,1.38.2-.03-.65-.06-1.18-.12-1.55-.77-5.75-5.73-10.08-11.53-10.08-1.77,0-3.45.4-4.95,1.11.54.65,1.01,1.31,1.41,2.01,1.09-.46,2.29-.71,3.54-.71,4.13,0,7.72,2.77,8.86,6.64-6.06.4-10.88,5.46-10.88,11.63,0,2.1.57,4.08,1.55,5.78.36.65.86,1.31,1.42,1.96,1.38,1.55,3.17,2.73,5.2,3.37-2.62,1.38-5.6,2.16-8.76,2.16-10.41,0-18.88-8.47-18.88-18.87,0-6,2.82-11.35,7.2-14.81,2.47.13,4.69,1.24,6.28,2.94-2.25,2.13-3.66,5.14-3.66,8.46,0,.84.09,1.64.26,2.43.85.48,1.74.67,2.67.61-.34-.98-.53-2-.53-3.05,0-2.52,1.01-4.82,2.67-6.49.68,1.29,1.07,2.75,1.07,4.31,0,2.2-.77,4.23-2.07,5.82h0s0,0,0,.01c0,0-.01.01-.02.02-.56.72-1.13,1.2-1.83,1.69,0,0-.25.17-.25.17-1.45.97-3.2,1.54-5.07,1.54-.13,0-.44-.02-.62-.03-.48-.05-.95-.13-1.41-.22,0,.4.04,1.03.11,1.57.77,5.75,5.75,10.09,11.55,10.09,1.77,0,3.45-.4,4.96-1.11-.53-.62-1-1.29-1.41-2.01-1.11.47-2.28.72-3.55.72-4.13,0-7.72-2.77-8.86-6.64,6.07-.39,10.88-5.46,10.88-11.62,0-2.1-.58-4.09-1.56-5.79-.31-.62-.82-1.28-1.41-1.96-1.4-1.56-3.21-2.75-5.26-3.38,2.62-1.37,5.59-2.15,8.75-2.15,10.41,0,18.87,8.47,18.87,18.87,0,6-2.82,11.36-7.2,14.82"/>
        <path class="cls-1" d="m90.75,2.89v3.32h4.47V1.85h-1.05v3.32h-2.38V1.85h-2.04c-1.44,0-2.21.75-2.21,2.16v1.16h-2.12c-1.1,0-1.65-.49-1.65-1.46v-1.33l-1.04-.25v1.65c0,1.59.88,2.43,2.54,2.43h3.31v-2.22c0-.74.39-1.1,1.18-1.1h.98Z"/>
        <path class="cls-1" d="m100.63,4.09c0-1.48-.75-2.24-2.22-2.24h-1.67v1.04h1.77c.75,0,1.11.37,1.11,1.14v1.14h-3.04v1.04h4.06v-2.12Z"/>
        <path class="cls-1" d="m51.15,6.21h3.31v-2.22c0-.74.39-1.1,1.18-1.1h.98v3.32h9v-1.93c0-1.54-.92-2.43-2.53-2.43h-2.7v-.39h-1.04v3.71h-1.68V1.85h-2.04c-1.44,0-2.21.75-2.21,2.16v1.16h-2.12c-1.1,0-1.65-.49-1.65-1.46v-1.33c-.34-.18-.69-.24-1.04-.25v1.65c0,1.59.88,2.43,2.54,2.43m9.24-3.32h2.76c.65,0,1.43.22,1.43,1.27v1.01h-4.19v-2.28Z"/>
        <rect class="cls-1" x="79.13" width="1.04" height="6.21"/>
        <polygon class="cls-1" points="71.93 1.85 70.89 1.85 70.89 5.17 67.99 5.17 67.99 0 66.95 0 66.95 6.21 71.94 6.21 71.93 1.85"/>
        <path class="cls-1" d="m75.01,6.21h3V0h-1.04v5.17h-1.92V1.85h-1.04v3.77c0,.84-.3,1.21-1,1.21-.2,0-.38-.01-.59-.03v.94c.24.04.49.07.73.07,1.08,0,1.7-.54,1.86-1.59"/>
        <rect class="cls-1" x="52.38" y="7.11" width="1.04" height="1.04"/>
        <rect class="cls-1" x="50.81" y="7.11" width="1.04" height="1.04"/>
        <rect class="cls-1" x="69.71" y="7.11" width="1.04" height="1.04"/>
        <rect class="cls-1" x="61.7" width="1.04" height="1.04"/>
        <rect class="cls-1" x="68.14" y="7.11" width="1.04" height="1.04"/>
        <rect class="cls-1" x="85.92" y="7.11" width="1.04" height="1.04"/>
        <rect class="cls-1" x="92.46" y="7.11" width="1.04" height="1.04"/>
        <rect class="cls-1" x="121.65" y="7.11" width="1.04" height="1.04"/>
        <rect class="cls-1" x="84.35" y="7.11" width="1.04" height="1.04"/>
        <path class="cls-1" d="m129.94,2.34c-1.54,0-2.58.95-2.58,2.36h0c0,.15.02.3.04.44,0,0,0,.02,0,.03h-1.95c0-.46,0-.9,0-1.18,0-1.45-1.14-2.38-2.9-2.38-.7,0-1.42.13-2.26.41l-.15.05.29.98.16-.05c.79-.25,1.32-.35,1.9-.35,1.21,0,1.96.51,1.96,1.34,0,.32,0,.66,0,1.19h-5.81V0h-1.04v5.17h-1.1c-.82,0-1.25-.45-1.25-1.29V1.85h-1.04v2.06c0,.89-.42,1.33-1.29,1.33-.79,0-1.29-.48-1.29-1.26V1.85h-1.04v2.17c0,.78-.4,1.15-1.23,1.15h-.95V1.85h-1.05v4.36h-1.6c-1.06,0-1.6-.49-1.6-1.44v-2.29h-1.05v2.37c0,1.53.93,2.4,2.54,2.4h2.76v-1.04h.95c.77,0,1.36-.3,1.7-.86.34.57,1.07.94,1.92.94s1.52-.27,1.89-.81c.28.39.75.65,1.33.71l11.74.02c.44.49,1.12.79,1.96.79.02,0,.04,0,.06,0,1.51,0,2.52-.92,2.52-2.3h0c0-1.42-1.01-2.36-2.52-2.36m0,3.62c-.25,0-.54-.05-.78-.14-.45-.19-.73-.58-.75-1.09,0-.02,0-.03,0-.05,0-.79.6-1.3,1.53-1.3s1.47.51,1.47,1.3-.58,1.28-1.47,1.28"/>
      </g>
    </g>
  </g>
</svg>