<?xml version="1.0" encoding="UTF-8"?>
<svg id="Layer_1" data-name="Layer 1" xmlns="http://www.w3.org/2000/svg" viewBox="0 0 32.08 20.35">
  <defs>
    <style>
      .cls-1 {
        fill: #fff;
      }

      .cls-2 {
        fill: #e2dddb;
      }

      .cls-3 {
        fill: #f5333f;
      }

      .cls-4 {
        fill: #00ae42;
      }

      .cls-5 {
        fill: #2d2a26;
      }
    </style>
  </defs>
  <g>
    <path class="cls-1" d="m15.86,2.27c0,1.09.84,2.02,1.83,2.02h4.44s-.05-.15-.05-.15c-.28-.79-.71-1.51-1.27-2.13l-.03-.04h-4.69v-.08c0-.83-.5-1.57-1.27-1.88h-.03s-.03,0-.03,0c-1.35.28-2.56.97-3.49,2l-.17.19h4.78v.08Z"/>
    <path class="cls-1" d="m16.09,6.24v-.07c0-1.1-.84-2.03-1.84-2.03h-4.26s-.03.08-.03.08c-.23.68-.35,1.38-.35,2.1v.16h6.27v.04c0,1.1.84,2.02,1.83,2.02h4.37s.03-.07.03-.07c.24-.67.36-1.38.37-2.1v-.11s-6.38,0-6.38,0Z"/>
    <path class="cls-1" d="m16.09,10.38c0-1.1-.84-2.03-1.84-2.03h-4.3s.05.15.05.15c.29.8.73,1.52,1.3,2.15l.03.04h4.55v.03c0,.84.53,1.6,1.31,1.9h.03s.03,0,.03,0c1.35-.26,2.6-.96,3.54-1.98l.17-.19h-4.87v-.07Z"/>
    <path class="cls-3" d="m15.96,1.89c0-.8-.5-1.49-1.2-1.78-1.35.27-2.54.98-3.43,1.97h4.63v-.19Z"/>
    <path class="cls-4" d="m15.97,2.27c0,.99.75,1.91,1.72,1.91h4.28c-.28-.78-.71-1.49-1.25-2.09h-4.74v.19Z"/>
    <path class="cls-3" d="m15.98,6.16c0-.99-.77-1.92-1.73-1.92h-4.18c-.22.65-.35,1.34-.35,2.07,0,.01,0,.03,0,.04h6.25v-.19Z"/>
    <path class="cls-2" d="m15.99,6.5c0,.99.75,1.91,1.72,1.91,0,0,2.34,0,4.29,0,.23-.65.35-1.34.36-2.06h-6.37s0,.15,0,.15Z"/>
    <path class="cls-3" d="m15.98,10.38c0-.99-.76-1.92-1.73-1.92h-4.14c.29.79.72,1.5,1.28,2.11h4.6v-.19Z"/>
    <path class="cls-5" d="m15.99,10.72c0,.82.52,1.52,1.24,1.8,1.36-.26,2.57-.96,3.48-1.94h-4.72v.15Z"/>
  </g>
  <g>
    <g>
      <path class="cls-1" d="m2.1,18.21c-1.47,0-2.1-.58-2.1-1.79v-1.73h1.24v1.73c0,.37.13.7.86.7s.86-.33.86-.7v-1.73h1.24v1.73c0,1.21-.64,1.79-2.1,1.79Z"/>
      <path class="cls-1" d="m7.1,17.53h-1.42l-.23.63h-1.37l1.39-3.48h1.84l1.39,3.48h-1.37l-.23-.63Zm-.32-.89l-.39-1.06-.39,1.06h.77Z"/>
      <path class="cls-1" d="m10.2,15.67v.32h2.29v.84h-2.29v.32h2.29v.99h-3.53v-3.48h3.53v.99h-2.29Z"/>
      <path class="cls-1" d="m17.93,18.16h-1.24v-1.65l-.91,1.65h-.81l-.91-1.65v1.65h-1.24v-3.48h1.53l1.03,1.99,1.03-1.99h1.53v3.48Z"/>
      <path class="cls-1" d="m23.4,18.16h-1.24v-1.65l-.91,1.65h-.81l-.91-1.65v1.65h-1.24v-3.48h1.53l1.03,1.99,1.03-1.99h1.53v3.48Z"/>
      <path class="cls-1" d="m26.68,17.53h-1.42l-.23.63h-1.37l1.39-3.48h1.84l1.39,3.48h-1.37l-.23-.63Zm-.32-.89l-.39-1.06-.39,1.06h.77Z"/>
      <path class="cls-1" d="m29.78,15.77v.37h2.01v1.09h-2.01v.92h-1.24v-3.48h3.53v1.09h-2.29Z"/>
    </g>
    <path class="cls-3" d="m.03,19.09s0,0,0,0h.15s0,0,0,0v.82c0,.08.03.14.08.2.05.06.12.09.2.09s.14-.03.19-.09c.05-.06.08-.13.08-.2v-.82s0,0,0,0h.15s0,0,0,0v.82c0,.24-.2.45-.44.44-.12,0-.23-.04-.32-.13s-.13-.19-.13-.31v-.82Z"/>
    <path class="cls-3" d="m1.52,19.09s0,0,.01,0h.22s0,0,.01,0l.41,1.24s0,0,0,0h-.17s0,0,0,0l-.08-.25s0,0-.01,0h-.52s0,0-.01,0l-.08.25s0,0,0,0h-.17s-.01,0-.01,0l.42-1.24Zm-.1.82s0,0,0,0c0,0,0,0,0,0h.42s0,0,0,0c0,0,0,0,0,0l-.21-.65s-.01-.01-.02,0l-.21.65Z"/>
    <path class="cls-3" d="m2.34,19.09s0,0,0,0h.86s0,0,0,0v.13s0,0,0,0h-.69s0,0,0,0v.36s0,0,0,0h.61s0,0,0,0v.13s0,0,0,0h-.61s0,0,0,0v.4s0,0,0,0h.69s0,0,0,0v.13s0,0,0,0h-.86s0,0,0,0v-1.24Z"/>
    <path class="cls-1" d="m3.83,19.09s0,0,0,0h.29s0,0,.01,0l.32,1.07s.01,0,.02,0l.32-1.07s0,0,.01,0h.29s0,0,0,0v1.24s0,0,0,0h-.15s0,0,0,0v-1.07s-.02-.01-.02,0l-.31,1.07s0,0-.01,0h-.24s-.01,0-.01,0l-.31-1.07s-.02,0-.02,0v1.07s0,0,0,0h-.15s0,0,0,0v-1.24Z"/>
    <path class="cls-1" d="m5.34,19.09s0,0,0,0h.15s0,0,0,0v1.24s0,0,0,0h-.15s0,0,0,0v-1.24Z"/>
    <path class="cls-1" d="m5.7,20.32l.41-.61s0,0,0-.01l-.41-.61s0,0,0,0,0,0,0,0c0,0,0,0,0,0h.18s0,0,.01,0l.3.47s.01,0,.02,0l.31-.47s.01,0,.02,0h.18s0,0,0,0c0,0,0,0,0,0l-.41.61s0,0,0,.01l.41.61s0,0,0,0,0,0,0,0c0,0,0,0,0,0h-.18s0,0-.01,0l-.31-.47s-.01,0-.02,0c-.03.04-.07.1-.12.18-.05.08-.09.15-.13.2l-.06.09s0,0-.01,0h-.18s0,0,0,0c0,0,0,0,0,0Z"/>
    <path class="cls-1" d="m6.9,19.09s0,0,0,0h.86s0,0,0,0v.13s0,0,0,0h-.69s0,0,0,0v.36s0,0,0,0h.61s0,0,0,0v.13s0,0,0,0h-.61s0,0,0,0v.4s0,0,0,0h.69s0,0,0,0v.13s0,0,0,0h-.86s0,0,0,0v-1.24Z"/>
    <path class="cls-1" d="m7.98,19.09s0,0,0,0h.46c.18,0,.33.07.42.18.09.11.14.27.14.46s-.05.34-.14.45c-.09.11-.23.16-.42.16h-.46s0,0,0,0v-1.24Zm.17,1.08s0,0,0,0h.29c.24,0,.38-.16.38-.46,0-.15-.03-.27-.1-.36s-.16-.13-.28-.13h-.29s0,0,0,0v.93Z"/>
    <path class="cls-1" d="m9.6,19.09s0,0,0,0h.29s0,0,.01,0l.32,1.07s.01,0,.02,0l.32-1.07s0,0,.01,0h.29s0,0,0,0v1.24s0,0,0,0h-.15s0,0,0,0v-1.07s-.02-.01-.02,0l-.31,1.07s0,0-.01,0h-.24s-.01,0-.01,0l-.31-1.07s-.02,0-.02,0v1.07s0,0,0,0h-.15s0,0,0,0v-1.24Z"/>
    <path class="cls-1" d="m11.49,19.09s0,0,.01,0h.22s0,0,.01,0l.41,1.24s0,0,0,0h-.17s0,0,0,0l-.08-.25s0,0-.01,0h-.52s0,0-.01,0l-.08.25s0,0,0,0h-.17s-.01,0-.01,0l.42-1.24Zm-.1.82s0,0,0,0c0,0,0,0,0,0h.42s0,0,0,0c0,0,0,0,0,0l-.21-.65s-.01-.01-.02,0l-.21.65Z"/>
    <path class="cls-1" d="m12.33,19.09s0,0,0,0h.52c.19,0,.37.17.36.38,0,.08-.02.14-.06.2-.04.06-.09.11-.15.14,0,0,0,0,0,.01l.23.51s0,0,0,0c0,0,0,0,0,0h-.15s-.01,0-.02,0l-.21-.48s0,0-.01,0h-.33s0,0,0,0v.48s0,0,0,0h-.15s0,0,0,0v-1.24Zm.17.59s0,0,0,0h.34c.05,0,.1-.02.15-.07.04-.04.06-.09.06-.15s-.02-.11-.07-.16c-.04-.05-.09-.07-.15-.07h-.33s0,0,0,0v.43Z"/>
    <path class="cls-1" d="m13.28,19.09s0,0,0,0h.87s0,0,0,0v.13s0,0,0,0h-.34s0,0,0,0v1.08s0,0,0,0h-.15s0,0,0,0v-1.09s0,0,0,0h-.34s0,0,0,0v-.13Z"/>
    <path class="cls-1" d="m14.33,19.09s0,0,0,0h.15s0,0,0,0v1.24s0,0,0,0h-.15s0,0,0,0v-1.24Z"/>
    <path class="cls-1" d="m15.12,19.09s0,0,.01,0h.22s0,0,.01,0l.41,1.24s0,0,0,0h-.17s0,0,0,0l-.08-.25s0,0-.01,0h-.52s0,0-.01,0l-.08.25s0,0,0,0h-.17s-.01,0-.01,0l.42-1.24Zm-.1.82s0,0,0,0c0,0,0,0,0,0h.42s0,0,0,0c0,0,0,0,0,0l-.21-.65s-.01-.01-.02,0l-.21.65Z"/>
    <path class="cls-1" d="m15.95,19.09s0,0,0,0h.15s0,0,0,0v1.08s0,0,0,0h.62s0,0,0,0v.13s0,0,0,0h-.79s0,0,0,0v-1.24Z"/>
    <path class="cls-1" d="m17.64,19.09s0,0,.01,0h.22s0,0,.01,0l.41,1.24s0,0,0,0h-.17s0,0,0,0l-.08-.25s0,0-.01,0h-.52s0,0-.01,0l-.08.25s0,0,0,0h-.17s-.01,0-.01,0l.42-1.24Zm-.1.82s0,0,0,0c0,0,0,0,0,0h.42s0,0,0,0c0,0,0,0,0,0l-.21-.65s-.01-.01-.02,0l-.21.65Z"/>
    <path class="cls-1" d="m18.48,19.09s0,0,0,0h.52c.19,0,.37.17.36.38,0,.08-.02.14-.06.2-.04.06-.09.11-.15.14,0,0,0,0,0,.01l.23.51s0,0,0,0c0,0,0,0,0,0h-.15s-.01,0-.02,0l-.21-.48s0,0-.01,0h-.33s0,0,0,0v.48s0,0,0,0h-.15s0,0,0,0v-1.24Zm.17.59s0,0,0,0h.34c.05,0,.1-.02.15-.07.04-.04.06-.09.06-.15s-.02-.11-.07-.16c-.04-.05-.09-.07-.15-.07h-.33s0,0,0,0v.43Z"/>
    <path class="cls-1" d="m19.43,19.09s0,0,0,0h.87s0,0,0,0v.13s0,0,0,0h-.34s0,0,0,0v1.08s0,0,0,0h-.15s0,0,0,0v-1.09s0,0,0,0h-.34s0,0,0,0v-.13Z"/>
    <path class="cls-1" d="m20.42,19.98h.16s.01,0,.01.01c0,.05.03.1.07.14.05.04.13.07.22.07.09,0,.16-.02.22-.06.05-.04.08-.09.08-.16,0-.09-.05-.15-.13-.17-.06-.02-.1-.03-.17-.03-.07,0-.11-.01-.18-.03-.07-.02-.11-.04-.16-.07-.07-.05-.12-.13-.12-.25,0-.07.02-.14.06-.19.04-.05.1-.1.16-.12s.13-.04.21-.04c.12,0,.22.03.3.09.08.06.14.15.14.27,0,0,0,0,0,0h-.16s0,0,0,0c0-.06-.03-.11-.08-.15-.05-.04-.11-.06-.19-.06-.07,0-.13.02-.18.06-.05.04-.07.09-.07.15,0,.09.05.13.13.15.06.02.08.02.15.03.08,0,.13.02.2.03s.12.04.17.08c.07.05.11.14.11.26,0,.11-.05.22-.16.29-.07.05-.18.08-.32.08-.15,0-.27-.04-.35-.11-.08-.07-.12-.15-.12-.25,0,0,0,0,0,0Z"/>
    <path class="cls-1" d="m21.96,19.09s0,0,0,0h.79s0,0,0,0v.13s0,0,0,0h-.62s0,0,0,0v.36s0,0,0,0h.55s0,0,0,0v.13s0,0,0,0h-.55s0,0,0,0v.55s0,0,0,0h-.15s0,0,0,0v-1.24Z"/>
    <path class="cls-1" d="m22.9,19.09s0,0,0,0h.86s0,0,0,0v.13s0,0,0,0h-.69s0,0,0,0v.36s0,0,0,0h.61s0,0,0,0v.13s0,0,0,0h-.61s0,0,0,0v.4s0,0,0,0h.69s0,0,0,0v.13s0,0,0,0h-.86s0,0,0,0v-1.24Z"/>
    <path class="cls-1" d="m23.98,19.09s0,0,0,0h.46c.18,0,.33.07.42.18.09.11.14.27.14.46s-.05.34-.14.45c-.09.11-.23.16-.42.16h-.46s0,0,0,0v-1.24Zm.17,1.08s0,0,0,0h.29c.24,0,.38-.16.38-.46,0-.15-.03-.27-.1-.36s-.16-.13-.28-.13h-.29s0,0,0,0v.93Z"/>
    <path class="cls-1" d="m25.2,19.09s0,0,0,0h.86s0,0,0,0v.13s0,0,0,0h-.69s0,0,0,0v.36s0,0,0,0h.61s0,0,0,0v.13s0,0,0,0h-.61s0,0,0,0v.4s0,0,0,0h.69s0,0,0,0v.13s0,0,0,0h-.86s0,0,0,0v-1.24Z"/>
    <path class="cls-1" d="m26.3,19.09s0,0,0,0h.52c.19,0,.37.17.36.38,0,.08-.02.14-.06.2-.04.06-.09.11-.15.14,0,0,0,0,0,.01l.23.51s0,0,0,0c0,0,0,0,0,0h-.15s-.01,0-.02,0l-.21-.48s0,0-.01,0h-.33s0,0,0,0v.48s0,0,0,0h-.15s0,0,0,0v-1.24Zm.17.59s0,0,0,0h.34c.05,0,.1-.02.15-.07.04-.04.06-.09.06-.15s-.02-.11-.07-.16c-.04-.05-.09-.07-.15-.07h-.33s0,0,0,0v.43Z"/>
    <path class="cls-1" d="m27.73,19.09s0,0,.01,0h.22s0,0,.01,0l.41,1.24s0,0,0,0h-.17s0,0,0,0l-.08-.25s0,0-.01,0h-.52s0,0-.01,0l-.08.25s0,0,0,0h-.17s-.01,0-.01,0l.42-1.24Zm-.1.82s0,0,0,0c0,0,0,0,0,0h.42s0,0,0,0c0,0,0,0,0,0l-.21-.65s-.01-.01-.02,0l-.21.65Z"/>
    <path class="cls-1" d="m28.36,19.09s0,0,0,0h.87s0,0,0,0v.13s0,0,0,0h-.34s0,0,0,0v1.08s0,0,0,0h-.15s0,0,0,0v-1.09s0,0,0,0h-.34s0,0,0,0v-.13Z"/>
    <path class="cls-1" d="m29.4,19.09s0,0,0,0h.15s0,0,0,0v1.24s0,0,0,0h-.15s0,0,0,0v-1.24Z"/>
    <path class="cls-1" d="m29.76,19.71c0-.13.02-.24.06-.33.04-.1.1-.17.19-.23.09-.05.19-.08.31-.08s.23.03.31.08c.09.06.15.13.19.23s.06.21.06.33-.02.24-.06.33-.1.17-.19.23c-.09.06-.19.08-.31.08s-.22-.03-.31-.08c-.09-.05-.15-.13-.19-.23-.04-.1-.06-.21-.06-.33Zm.18,0c0,.16.03.28.1.36.07.09.16.13.28.13s.22-.04.28-.13c.07-.09.1-.21.1-.36s-.03-.28-.1-.36c-.07-.09-.16-.13-.28-.13s-.22.04-.28.13c-.07.09-.1.21-.1.36Z"/>
    <path class="cls-1" d="m31.07,19.09s0,0,0,0h.26s.01,0,.01,0l.54,1.07s.02,0,.02,0v-1.07s0,0,0,0h.15s0,0,0,0v1.24s0,0,0,0h-.26s0,0-.01,0l-.54-1.07s-.02,0-.02,0v1.07s0,0,0,0h-.15s0,0,0,0v-1.24Z"/>
  </g>
</svg>